<svg xmlns="http://www.w3.org/2000/svg"><symbol viewBox="0 0 32 32" id="icon-chevron-down"><title>chevron-down</title> <path d="M1.352,9.793l3.089-3.07C4.678,6.49,4.957,6.371,5.28,6.371S5.883,6.49,6.12,6.723L16,16.605l9.88-9.883
	c0.237-0.232,0.517-0.352,0.84-0.352s0.603,0.119,0.84,0.352l3.089,3.07C30.882,10.03,31,10.31,31,10.641
	c0,0.327-0.118,0.609-0.352,0.847L16.84,25.276c-0.237,0.235-0.517,0.353-0.84,0.353s-0.603-0.117-0.84-0.353L1.352,11.487
	C1.118,11.25,1,10.968,1,10.641C1,10.31,1.118,10.03,1.352,9.793z"/> </symbol><symbol viewBox="0 0 32 32" id="icon-chevron-up"><title>chevron-up</title> <path d="M30.648,22.207l-3.089,3.07c-0.237,0.232-0.517,0.352-0.84,0.352s-0.603-0.119-0.84-0.352L16,15.395l-9.88,9.883
	c-0.237,0.232-0.517,0.352-0.84,0.352s-0.603-0.119-0.84-0.352l-3.089-3.07C1.118,21.97,1,21.69,1,21.359
	c0-0.327,0.118-0.609,0.352-0.847L15.16,6.724c0.237-0.235,0.517-0.353,0.84-0.353s0.603,0.117,0.84,0.353l13.809,13.789
	C30.882,20.75,31,21.032,31,21.359C31,21.69,30.882,21.97,30.648,22.207z"/> </symbol><symbol viewBox="0 0 32 32" id="icon-loupe"><title>loupe</title> <path d="M30.296,27.986l-3.463-3.462l0.003-0.003l-4.038-4.038c1.618-2.111,2.503-4.675,2.514-7.37
	c0.014-3.248-1.239-6.298-3.528-8.586C19.508,2.253,16.477,1,13.248,1C9.983,1,6.91,2.276,4.594,4.593
	c-2.304,2.304-3.58,5.359-3.593,8.604c-0.014,3.248,1.239,6.297,3.528,8.586c2.274,2.275,5.306,3.528,8.535,3.528
	c2.714,0,5.293-0.885,7.417-2.513l4.038,4.038l0.005-0.005l3.462,3.463c0.805,0.805,1.975,0.941,2.611,0.303
	C31.236,29.961,31.1,28.791,30.296,27.986z M5.954,20.358c-1.906-1.906-2.949-4.446-2.938-7.153c0.011-2.71,1.077-5.262,3.004-7.188
	c1.936-1.937,4.503-3.003,7.229-3.003c2.69,0,5.216,1.043,7.111,2.938c1.905,1.905,2.948,4.446,2.938,7.153
	c-0.011,2.711-1.077,5.263-3.004,7.188c-1.935,1.938-4.502,3.004-7.229,3.004C10.373,23.297,7.849,22.253,5.954,20.358z"/> </symbol></svg>