<svg xmlns="http://www.w3.org/2000/svg"><symbol viewBox="0 0 32 32" id="icon-chevron-down"><title>chevron-down</title> <path d="M1.352,9.793l3.089-3.07C4.678,6.49,4.957,6.371,5.28,6.371S5.883,6.49,6.12,6.723L16,16.605l9.88-9.883
	c0.237-0.232,0.517-0.352,0.84-0.352s0.603,0.119,0.84,0.352l3.089,3.07C30.882,10.03,31,10.31,31,10.641
	c0,0.327-0.118,0.609-0.352,0.847L16.84,25.276c-0.237,0.235-0.517,0.353-0.84,0.353s-0.603-0.117-0.84-0.353L1.352,11.487
	C1.118,11.25,1,10.968,1,10.641C1,10.31,1.118,10.03,1.352,9.793z"/> </symbol><symbol viewBox="0 0 32 32" id="icon-chevron-right"><title>chevron-right</title> <polygon points="30.644,16.012 1.356,1 10.835,16.012 1.356,31 "/> </symbol><symbol viewBox="0 0 32 32" id="icon-chevron-up"><title>chevron-up</title> <path d="M30.648,22.207l-3.089,3.07c-0.237,0.232-0.517,0.352-0.84,0.352s-0.603-0.119-0.84-0.352L16,15.395l-9.88,9.883
	c-0.237,0.232-0.517,0.352-0.84,0.352s-0.603-0.119-0.84-0.352l-3.089-3.07C1.118,21.97,1,21.69,1,21.359
	c0-0.327,0.118-0.609,0.352-0.847L15.16,6.724c0.237-0.235,0.517-0.353,0.84-0.353s0.603,0.117,0.84,0.353l13.809,13.789
	C30.882,20.75,31,21.032,31,21.359C31,21.69,30.882,21.97,30.648,22.207z"/> </symbol><symbol viewBox="0 0 32 32" id="icon-linkedin"><title>linkedin</title> <path d="M28.188,1H3.812C2.266,1,1,2.266,1,3.812v24.375C1,29.734,2.266,31,3.812,31h24.375C29.734,31,31,29.734,31,28.188V3.812
	C31,2.266,29.734,1,28.188,1z M12.25,25.375H8.5V12.25h3.75V25.375z M10.375,10.375C9.339,10.375,8.5,9.537,8.5,8.5
	s0.839-1.875,1.875-1.875S12.25,7.463,12.25,8.5S11.411,10.375,10.375,10.375z M25.375,25.375h-3.75v-7.5
	c0-1.036-0.839-1.875-1.875-1.875s-1.875,0.839-1.875,1.875v7.5h-3.75V12.25h3.75v2.326c0.773-1.06,1.956-2.326,3.281-2.326
	c2.333,0,4.219,2.098,4.219,4.688V25.375z"/> </symbol><symbol viewBox="0 0 32 32" id="icon-loupe"><title>loupe</title> <path d="M30.296,27.986l-3.463-3.462l0.003-0.003l-4.038-4.038c1.618-2.111,2.503-4.675,2.514-7.37
	c0.014-3.248-1.239-6.298-3.528-8.586C19.508,2.253,16.477,1,13.248,1C9.983,1,6.91,2.276,4.594,4.593
	c-2.304,2.304-3.58,5.359-3.593,8.604c-0.014,3.248,1.239,6.297,3.528,8.586c2.274,2.275,5.306,3.528,8.535,3.528
	c2.714,0,5.293-0.885,7.417-2.513l4.038,4.038l0.005-0.005l3.462,3.463c0.805,0.805,1.975,0.941,2.611,0.303
	C31.236,29.961,31.1,28.791,30.296,27.986z M5.954,20.358c-1.906-1.906-2.949-4.446-2.938-7.153c0.011-2.71,1.077-5.262,3.004-7.188
	c1.936-1.937,4.503-3.003,7.229-3.003c2.69,0,5.216,1.043,7.111,2.938c1.905,1.905,2.948,4.446,2.938,7.153
	c-0.011,2.711-1.077,5.263-3.004,7.188c-1.935,1.938-4.502,3.004-7.229,3.004C10.373,23.297,7.849,22.253,5.954,20.358z"/> </symbol><symbol viewBox="0 0 32 32" id="icon-twitter"><title>twitter</title> <path d="M31,6.696c-1.103,0.489-2.291,0.82-3.536,0.969c1.271-0.762,2.247-1.968,2.708-3.404c-1.189,0.705-2.508,1.218-3.909,1.493
	c-1.122-1.196-2.723-1.943-4.493-1.943c-3.398,0-6.154,2.755-6.154,6.154c0,0.483,0.055,0.953,0.159,1.402
	C10.66,11.111,6.125,8.66,3.089,4.937C2.561,5.846,2.256,6.902,2.256,8.031c0,2.135,1.086,4.019,2.737,5.123
	c-1.009-0.031-1.957-0.309-2.786-0.77c-0.002,0.025-0.002,0.052-0.002,0.078c0,2.982,2.122,5.469,4.937,6.034
	c-0.517,0.142-1.061,0.217-1.622,0.217c-0.396,0-0.782-0.039-1.158-0.112c0.784,2.444,3.057,4.225,5.75,4.274
	c-2.105,1.651-4.761,2.635-7.645,2.635c-0.496,0-0.985-0.029-1.467-0.086c2.723,1.746,5.958,2.765,9.434,2.765
	c11.321,0,17.512-9.379,17.512-17.512c0-0.268-0.005-0.533-0.018-0.796C29.131,9.014,30.174,7.93,31,6.696L31,6.696z"/> </symbol></svg>