<?xml version="1.0" encoding="utf-8"?>
<!-- Generator: Adobe Illustrator 16.0.0, SVG Export Plug-In . SVG Version: 6.00 Build 0)  -->
<!DOCTYPE svg PUBLIC "-//W3C//DTD SVG 1.1//EN" "http://www.w3.org/Graphics/SVG/1.1/DTD/svg11.dtd">
<svg version="1.1" id="Layer_1" xmlns="http://www.w3.org/2000/svg" xmlns:xlink="http://www.w3.org/1999/xlink" x="0px" y="0px"
	 width="32px" height="32px" viewBox="0 0 32 32" enable-background="new 0 0 32 32" xml:space="preserve">
<g>
	<path d="M30,25H2c-0.552,0-1,0.447-1,1v4c0,0.553,0.448,1,1,1h28c0.552,0,1-0.447,1-1v-4C31,25.447,30.552,25,30,25z"/>
	<path d="M30,1H2C1.448,1,1,1.447,1,2v4c0,0.553,0.448,1,1,1h28c0.552,0,1-0.447,1-1V2C31,1.447,30.552,1,30,1z"/>
	<path d="M30,13H2c-0.552,0-1,0.447-1,1v4c0,0.553,0.448,1,1,1h28c0.552,0,1-0.447,1-1v-4C31,13.447,30.552,13,30,13z"/>
</g>
</svg>
