<?xml version="1.0" encoding="utf-8"?>
<!-- Generator: Adobe Illustrator 16.0.0, SVG Export Plug-In . SVG Version: 6.00 Build 0)  -->
<!DOCTYPE svg PUBLIC "-//W3C//DTD SVG 1.1//EN" "http://www.w3.org/Graphics/SVG/1.1/DTD/svg11.dtd">
<svg version="1.1" id="Layer_1" xmlns="http://www.w3.org/2000/svg" xmlns:xlink="http://www.w3.org/1999/xlink" x="0px" y="0px"
	 width="32px" height="32px" viewBox="0 0 32 32" enable-background="new 0 0 32 32" xml:space="preserve">
<path d="M17.479,17.478V8.462h-2.957v9.016H17.479z M17.479,23.534v-3.028h-2.957v3.028H17.479z M16,0.999
	c4.132,0,7.664,1.467,10.599,4.401C29.533,8.335,31,11.869,31,16c0,4.132-1.467,7.664-4.401,10.6
	c-2.935,2.935-6.467,4.402-10.599,4.402S8.336,29.534,5.401,26.6C2.467,23.664,1,20.132,1,16c0-4.131,1.467-7.665,4.401-10.6
	C8.336,2.466,11.868,0.999,16,0.999z"/>
</svg>
