<?xml version="1.0" encoding="utf-8"?>
<!-- Generator: Adobe Illustrator 16.0.0, SVG Export Plug-In . SVG Version: 6.00 Build 0)  -->
<!DOCTYPE svg PUBLIC "-//W3C//DTD SVG 1.1//EN" "http://www.w3.org/Graphics/SVG/1.1/DTD/svg11.dtd">
<svg version="1.1" id="Layer_1" xmlns="http://www.w3.org/2000/svg" xmlns:xlink="http://www.w3.org/1999/xlink" x="0px" y="0px"
	 width="32px" height="32px" viewBox="0 0 32 32" enable-background="new 0 0 32 32" xml:space="preserve">
<path d="M16,1C7.716,1,1,7.715,1,16c0,6.354,3.953,11.784,9.533,13.967c-0.131-1.187-0.25-3.006,0.053-4.303
	c0.272-1.17,1.758-7.456,1.758-7.456s-0.449-0.897-0.449-2.227c0-2.086,1.21-3.643,2.714-3.643c1.28,0,1.897,0.961,1.897,2.113
	c0,1.288-0.819,3.21-1.242,4.995c-0.354,1.494,0.749,2.712,2.222,2.712c2.666,0,4.715-2.812,4.715-6.87
	c0-3.591-2.58-6.103-6.265-6.103c-4.268,0-6.773,3.202-6.773,6.509c0,1.289,0.497,2.672,1.116,3.423
	c0.122,0.148,0.141,0.278,0.104,0.431c-0.114,0.474-0.367,1.492-0.416,1.701c-0.066,0.274-0.218,0.333-0.502,0.201
	C7.592,20.577,6.42,17.838,6.42,15.64c0-4.732,3.438-9.077,9.911-9.077c5.202,0,9.247,3.708,9.247,8.664
	c0,5.17-3.259,9.331-7.783,9.331c-1.52,0-2.948-0.789-3.438-1.724c0,0-0.752,2.864-0.935,3.565
	c-0.338,1.304-1.253,2.938-1.865,3.934C12.961,30.766,14.453,31,16,31c8.283,0,15-6.715,15-15S24.284,1,16,1L16,1z"/>
</svg>
