<?xml version="1.0" encoding="utf-8"?>
<!-- Generator: Adobe Illustrator 16.0.0, SVG Export Plug-In . SVG Version: 6.00 Build 0)  -->
<!DOCTYPE svg PUBLIC "-//W3C//DTD SVG 1.1//EN" "http://www.w3.org/Graphics/SVG/1.1/DTD/svg11.dtd">
<svg version="1.1" id="Layer_1" xmlns="http://www.w3.org/2000/svg" xmlns:xlink="http://www.w3.org/1999/xlink" x="0px" y="0px"
	 width="32px" height="32px" viewBox="0 0 32 32" enable-background="new 0 0 32 32" xml:space="preserve">
<path d="M30.296,27.986l-3.463-3.462l0.003-0.003l-4.038-4.038c1.618-2.111,2.503-4.675,2.514-7.37
	c0.014-3.248-1.239-6.298-3.528-8.586C19.508,2.253,16.477,1,13.248,1C9.983,1,6.91,2.276,4.594,4.593
	c-2.304,2.304-3.58,5.359-3.593,8.604c-0.014,3.248,1.239,6.297,3.528,8.586c2.274,2.275,5.306,3.528,8.535,3.528
	c2.714,0,5.293-0.885,7.417-2.513l4.038,4.038l0.005-0.005l3.462,3.463c0.805,0.805,1.975,0.941,2.611,0.303
	C31.236,29.961,31.1,28.791,30.296,27.986z M5.954,20.358c-1.906-1.906-2.949-4.446-2.938-7.153c0.011-2.71,1.077-5.262,3.004-7.188
	c1.936-1.937,4.503-3.003,7.229-3.003c2.69,0,5.216,1.043,7.111,2.938c1.905,1.905,2.948,4.446,2.938,7.153
	c-0.011,2.711-1.077,5.263-3.004,7.188c-1.935,1.938-4.502,3.004-7.229,3.004C10.373,23.297,7.849,22.253,5.954,20.358z"/>
</svg>
