<?xml version="1.0" encoding="utf-8"?>
<!-- Generator: Adobe Illustrator 16.0.0, SVG Export Plug-In . SVG Version: 6.00 Build 0)  -->
<!DOCTYPE svg PUBLIC "-//W3C//DTD SVG 1.1//EN" "http://www.w3.org/Graphics/SVG/1.1/DTD/svg11.dtd">
<svg version="1.1" id="Layer_1" xmlns="http://www.w3.org/2000/svg" xmlns:xlink="http://www.w3.org/1999/xlink" x="0px" y="0px"
	 width="32px" height="32px" viewBox="0 0 32 32" enable-background="new 0 0 32 32" xml:space="preserve">
<path d="M11.183,9.053c0.371-1.344,0.854-2.456,1.449-3.333c0.595-0.877,1.308-1.726,2.137-2.548
	c0.828-0.821,1.412-1.355,1.75-1.604C16.856,1.317,17.13,1.128,17.34,1c-0.821,2.398-1.212,4.471-1.172,6.217
	s0.396,3.159,1.062,4.238c0.669,1.078,1.639,1.883,2.91,2.415c0.29,0.113,0.554,0.185,0.797,0.217
	c1.143,0.08,1.399-1.159,0.772-3.717c-0.338-1.37-0.685-2.407-1.038-3.116c2.639,1.754,4.624,3.996,5.951,6.725
	c1.328,2.729,1.686,5.478,1.074,8.245c-0.241,1.08-0.619,2.061-1.135,2.946c-0.515,0.886-1.043,1.599-1.581,2.138
	c-0.54,0.539-1.24,1.053-2.101,1.545c-0.861,0.49-1.565,0.849-2.112,1.073c-0.548,0.226-1.28,0.5-2.197,0.82
	c-0.387,0.098-0.726,0.162-1.015,0.193c-0.29,0.033-0.535,0.054-0.736,0.061c-0.201,0.009-0.358-0.032-0.471-0.121
	c-0.113-0.087-0.201-0.165-0.266-0.229c-0.064-0.064-0.085-0.189-0.061-0.375s0.049-0.338,0.072-0.459
	c0.024-0.121,0.097-0.31,0.218-0.567c0.12-0.258,0.217-0.467,0.289-0.627c0.073-0.16,0.189-0.395,0.351-0.701
	c0.354-0.707,0.656-1.354,0.905-1.942c0.25-0.589,0.415-1.147,0.496-1.679c0.273-1.608,0.063-3.091-0.629-4.442
	s-1.674-2.672-2.945-3.96c0.321,0.628,0.426,1.897,0.313,3.803c-0.112,1.908-0.426,3.393-0.941,4.454
	c-0.241,0.483-0.522,0.97-0.845,1.461S12.6,26.602,12.149,27.1c-0.451,0.499-0.91,0.897-1.376,1.194
	c-0.468,0.299-0.966,0.487-1.498,0.567c-0.531,0.081-1.047-0.047-1.545-0.385c-1.127-0.726-1.972-1.6-2.535-2.621
	s-0.918-1.983-1.062-2.884c-0.081-0.484-0.121-0.991-0.121-1.521c0-0.531,0.061-1.216,0.181-2.054
	c0.121-0.836,0.435-1.697,0.941-2.583c0.508-0.885,1.179-1.698,2.017-2.439c-0.227,0.515-0.311,1.119-0.254,1.811
	c0.056,0.693,0.177,1.349,0.362,1.968c0.186,0.621,0.512,1.114,0.978,1.485c0.467,0.371,1.007,0.475,1.618,0.314
	c0.29-0.064,0.539-0.162,0.748-0.291s0.378-0.292,0.508-0.495c0.127-0.201,0.237-0.393,0.325-0.578
	c0.089-0.186,0.137-0.438,0.146-0.761c0.008-0.322,0.016-0.591,0.023-0.81c0.008-0.217-0.021-0.536-0.084-0.953
	c-0.064-0.42-0.113-0.737-0.145-0.954c-0.033-0.217-0.097-0.563-0.194-1.039c-0.096-0.475-0.16-0.808-0.192-1.001
	C10.748,11.736,10.812,10.396,11.183,9.053z"/>
</svg>
