<?xml version="1.0" encoding="utf-8"?>
<!-- Generator: Adobe Illustrator 16.0.0, SVG Export Plug-In . SVG Version: 6.00 Build 0)  -->
<!DOCTYPE svg PUBLIC "-//W3C//DTD SVG 1.1//EN" "http://www.w3.org/Graphics/SVG/1.1/DTD/svg11.dtd">
<svg version="1.1" id="Layer_1" xmlns="http://www.w3.org/2000/svg" xmlns:xlink="http://www.w3.org/1999/xlink" x="0px" y="0px"
	 width="32px" height="32px" viewBox="0 0 32 32" enable-background="new 0 0 32 32" xml:space="preserve">
<path d="M26,1H6C3.239,1,1,3.239,1,6v19.999C1,28.761,3.237,31,6,31h10V17.875h-3.75v-3.75H16v-2.812
	c0-2.588,2.099-4.688,4.688-4.688h4.688v3.75h-4.688c-0.518,0-0.938,0.42-0.938,0.938v2.812h5.156l-0.938,3.75H19.75V31H26
	c2.761,0,5-2.239,5-5.001V6C31,3.239,28.763,1,26,1z"/>
</svg>
