<?xml version="1.0" encoding="utf-8"?>
<!-- Generator: Adobe Illustrator 16.0.0, SVG Export Plug-In . SVG Version: 6.00 Build 0)  -->
<!DOCTYPE svg PUBLIC "-//W3C//DTD SVG 1.1//EN" "http://www.w3.org/Graphics/SVG/1.1/DTD/svg11.dtd">
<svg version="1.1" id="Layer_1" xmlns="http://www.w3.org/2000/svg" xmlns:xlink="http://www.w3.org/1999/xlink" x="0px" y="0px"
	 width="32px" height="32px" viewBox="0 0 32 32" enable-background="new 0 0 32 32" xml:space="preserve">
<path fill-rule="evenodd" clip-rule="evenodd" d="M27,2.8C27,1.806,26.328,1,25.5,1h-19C5.672,1,5,1.806,5,2.8v26.4
	C5,30.194,5.672,31,6.5,31h19c0.828,0,1.5-0.806,1.5-1.8V2.8z M16,30.359c-0.483,0-0.875-0.392-0.875-0.875s0.392-0.875,0.875-0.875
	s0.875,0.392,0.875,0.875S16.483,30.359,16,30.359z M25,28H7V4h18V28z"/>
</svg>
