<?xml version="1.0" encoding="utf-8"?>
<!-- Generator: Adobe Illustrator 16.0.0, SVG Export Plug-In . SVG Version: 6.00 Build 0)  -->
<!DOCTYPE svg PUBLIC "-//W3C//DTD SVG 1.1//EN" "http://www.w3.org/Graphics/SVG/1.1/DTD/svg11.dtd">
<svg version="1.1" id="Layer_1" xmlns="http://www.w3.org/2000/svg" xmlns:xlink="http://www.w3.org/1999/xlink" x="0px" y="0px"
	 width="32px" height="32px" viewBox="0 0 32 32" enable-background="new 0 0 32 32" xml:space="preserve">
<path d="M25.754,21.986l3.028,3.028v1.479H3.218v-1.479l3.028-3.028v-8.24c0-2.253,0.704-4.272,2.113-6.056
	c1.408-1.784,3.192-2.934,5.352-3.451V3.254c0-0.61,0.224-1.139,0.669-1.585C14.826,1.222,15.354,0.999,15.965,1
	c0.611,0,1.14,0.224,1.586,0.668c0.444,0.445,0.668,0.973,0.668,1.585v0.985c2.159,0.517,3.955,1.667,5.387,3.451
	c1.434,1.784,2.149,3.803,2.149,6.056L25.754,21.986L25.754,21.986z M15.965,31c-0.798,0-1.49-0.293-2.077-0.88
	s-0.881-1.279-0.881-2.078h5.984c0,0.799-0.305,1.491-0.914,2.078C17.467,30.707,16.763,31,15.965,31z"/>
</svg>
