<?xml version="1.0" encoding="utf-8"?>
<!-- Generator: Adobe Illustrator 16.0.0, SVG Export Plug-In . SVG Version: 6.00 Build 0)  -->
<!DOCTYPE svg PUBLIC "-//W3C//DTD SVG 1.1//EN" "http://www.w3.org/Graphics/SVG/1.1/DTD/svg11.dtd">
<svg version="1.1" id="Layer_1" xmlns="http://www.w3.org/2000/svg" xmlns:xlink="http://www.w3.org/1999/xlink" x="0px" y="0px"
	 width="32px" height="32px" viewBox="0 0 32 32" enable-background="new 0 0 32 32" xml:space="preserve">
<g>
	<path d="M10.24,15.323l2.318-7.521l4.955,11.268l1.096-3.81h11.934c0.625-2.192,0.453-3.82,0.377-4.386
		c-0.303-2.285-1.537-6.543-6.539-7.528c-0.748-0.147-1.447-0.217-2.098-0.227c-0.049,0-0.096-0.002-0.145-0.002
		c-0.002,0-0.002,0-0.004,0c-3.473-0.004-5.527,2.149-6.146,2.752c-0.619-0.604-2.674-2.756-6.148-2.752c-0.002,0-0.002,0-0.004,0
		c-0.047,0-0.096,0-0.143,0.002c-0.65,0.009-1.35,0.079-2.098,0.227c-5.002,0.985-6.35,5.484-6.539,7.528
		c-0.049,0.514-0.221,2.184,0.451,4.448H10.24z"/>
	<path d="M19.943,17.032l-2.082,7.232L12.85,12.867l-1.305,4.228H2.168c1.6,3.537,5.32,7.974,13.82,11.787
		c8.602-3.861,12.33-8.312,13.906-11.852h-9.951V17.032z"/>
</g>
</svg>
