<?xml version="1.0" encoding="utf-8"?>
<!-- Generator: Adobe Illustrator 16.0.0, SVG Export Plug-In . SVG Version: 6.00 Build 0)  -->
<!DOCTYPE svg PUBLIC "-//W3C//DTD SVG 1.1//EN" "http://www.w3.org/Graphics/SVG/1.1/DTD/svg11.dtd">
<svg version="1.1" id="Layer_1" xmlns="http://www.w3.org/2000/svg" xmlns:xlink="http://www.w3.org/1999/xlink" x="0px" y="0px"
	 width="32px" height="32px" viewBox="0 0 32 32" enable-background="new 0 0 32 32" xml:space="preserve">
<path d="M25.911,25.583c0,0-6.282-1.617-6.984-2.32c-0.493-0.492-0.586-1.395-0.601-1.632c1.914-0.884,3.852-2.73,4.168-4.919
	c0,0,1.296-0.218,1.451-1.614c0.094-0.843-0.152-1.426-0.782-1.426l0.003-5.347c0.498-0.364,0.545-0.974,0.545-0.974
	c0-1.444-1.211-2.363-2.656-2.363c-0.24,0-0.473,0.088-0.693,0.148c-0.039-1.615-2.006-3.387-5-3.387c-0.117,0-0.205,0-0.275,0
	c-0.155,0-0.208,0-0.208,0c-0.114,0-0.284,0-0.536,0c-3.489,0-6.568,1.863-6.568,1.863s0.19,2.309,1.989,3.046
	c0,0-1.265,0.667-1.265,2.542c0,1.017,0,4.5,0,4.5S7.94,14.141,7.94,14.968c0,1.557,1.507,1.788,1.507,1.788
	c0.301,2.153,2.244,3.952,4.194,4.84c-0.009,0.161-0.056,1.146-0.579,1.667c-0.701,0.703-6.979,2.32-6.979,2.32
	C3.438,26.381,1,27.482,1,29.313c0,0.946,0,0.937,0,0.937h30c0,0,0,0.013,0-0.937C31,27.482,28.56,26.381,25.911,25.583z"/>
</svg>
