<?xml version="1.0" encoding="utf-8"?>
<!-- Generator: Adobe Illustrator 16.0.0, SVG Export Plug-In . SVG Version: 6.00 Build 0)  -->
<!DOCTYPE svg PUBLIC "-//W3C//DTD SVG 1.1//EN" "http://www.w3.org/Graphics/SVG/1.1/DTD/svg11.dtd">
<svg version="1.1" id="Layer_1" xmlns="http://www.w3.org/2000/svg" xmlns:xlink="http://www.w3.org/1999/xlink" x="0px" y="0px"
	 width="32px" height="32px" viewBox="0 0 32 32" enable-background="new 0 0 32 32" xml:space="preserve">
<path d="M4.992,23C2.79,23,1,24.797,1,26.986c0,2.203,1.79,3.979,3.992,3.979c2.211,0,3.998-1.775,3.998-3.979
	C8.99,24.797,7.203,23,4.992,23z M1.005,11.193v5.75c3.743,0,7.265,1.465,9.916,4.117c2.648,2.646,4.109,6.183,4.109,9.94h5.775
	C20.806,20.078,11.92,11.193,1.005,11.193z M1.011,1v5.752c13.354,0,24.222,10.879,24.222,24.248H31C31,14.462,17.545,1,1.011,1z"/>
</svg>
