<?xml version="1.0" encoding="utf-8"?>
<!-- Generator: Adobe Illustrator 16.0.0, SVG Export Plug-In . SVG Version: 6.00 Build 0)  -->
<!DOCTYPE svg PUBLIC "-//W3C//DTD SVG 1.1//EN" "http://www.w3.org/Graphics/SVG/1.1/DTD/svg11.dtd">
<svg version="1.1" id="Layer_1" xmlns="http://www.w3.org/2000/svg" xmlns:xlink="http://www.w3.org/1999/xlink" x="0px" y="0px"
	 width="32px" height="32px" viewBox="0 0 32 32" enable-background="new 0 0 32 32" xml:space="preserve">
<path fill-rule="evenodd" clip-rule="evenodd" d="M9.386,30.538L7.993,25.95c-1.231,0.708-2.263,1.089-2.604,0.739H5.381
	c-0.39-0.378,0.105-1.576,0.941-2.954l-4.936-1.498c-0.319-0.181-0.497-0.468-0.312-0.646l0.737-0.645
	c0.303-0.158,0.655-0.314,1-0.306l5.667,0.025c0.586-0.745,1.164-1.404,1.637-1.876l5.153-5.15l-0.956-0.957L4.124,10.681
	c-1.226-0.25-2.471-0.29-1.789-1.295l0.622-0.832c0.378-0.506,1.092-0.808,1.724-0.808h16.488l4.434-4.43
	c1.912-1.92,4.18-2.773,5.047-1.898h0.011c0.867,0.868,0.017,3.135-1.903,5.055l-4.433,4.433v16.852
	c0,0.631-0.304,1.348-0.812,1.726l-0.831,0.622c-1.004,0.679-1.045-0.566-1.293-1.792l-2.104-10.65l-0.858-0.859l-5.15,5.15
	c-0.559,0.564-1.396,1.276-2.315,1.981l0.022,5.178c0.009,0.348-0.147,0.698-0.309,1.001L10.03,30.85
	C9.853,31.039,9.569,30.861,9.386,30.538z"/>
</svg>
