<?xml version="1.0" encoding="utf-8"?>
<!-- Generator: Adobe Illustrator 16.0.0, SVG Export Plug-In . SVG Version: 6.00 Build 0)  -->
<!DOCTYPE svg PUBLIC "-//W3C//DTD SVG 1.1//EN" "http://www.w3.org/Graphics/SVG/1.1/DTD/svg11.dtd">
<svg version="1.1" id="Layer_1" xmlns="http://www.w3.org/2000/svg" xmlns:xlink="http://www.w3.org/1999/xlink" x="0px" y="0px"
	 width="32px" height="32px" viewBox="0 0 32 32" enable-background="new 0 0 32 32" xml:space="preserve">
<path d="M28.857,31H3.143C1.961,31,1,30.039,1,28.857v-22.5c0-1.183,0.961-2.143,2.143-2.143h2.144v1.071
	C5.286,7.062,6.725,8.5,8.5,8.5s3.214-1.438,3.214-3.214V4.214h8.572v1.071c0,1.776,1.439,3.214,3.214,3.214
	s3.214-1.438,3.214-3.214V4.214h2.144c1.182,0,2.143,0.96,2.143,2.143v22.5C31,30.039,30.039,31,28.857,31z M28.857,11.714H3.143
	v17.143h25.715V11.714z M12.859,20.103c0.211-0.336,0.317-0.691,0.317-1.064c0-0.828-0.445-1.243-1.337-1.243
	c-0.774,0-1.515,0.309-2.223,0.924v-1.746c0.783-0.507,1.666-0.76,2.649-0.76c0.921,0,1.64,0.231,2.157,0.693
	c0.518,0.463,0.775,1.088,0.775,1.874c0,1.05-0.63,2.137-1.891,3.258l-1.852,1.646v0.037h3.653v1.645H9.185v-1.544l2.58-2.468
	C12.283,20.857,12.648,20.44,12.859,20.103z M20.111,23.678c0.283-0.218,0.424-0.521,0.424-0.91c0-0.401-0.174-0.712-0.523-0.929
	c-0.35-0.218-0.829-0.327-1.442-0.327h-0.81v-1.519h0.747c1.172,0,1.758-0.39,1.758-1.169c0-0.732-0.45-1.098-1.35-1.098
	c-0.602,0-1.188,0.194-1.758,0.584v-1.62c0.632-0.318,1.368-0.477,2.21-0.477c0.92,0,1.637,0.207,2.149,0.622
	c0.514,0.415,0.77,0.952,0.77,1.613c0,1.176-0.597,1.913-1.789,2.21v0.03c0.636,0.079,1.138,0.311,1.507,0.693
	c0.368,0.382,0.553,0.853,0.553,1.409c0,0.841-0.308,1.506-0.923,1.996c-0.615,0.489-1.465,0.734-2.549,0.734
	c-0.93,0-1.685-0.15-2.267-0.452v-1.727c0.603,0.439,1.306,0.659,2.109,0.659C19.434,24.004,19.828,23.896,20.111,23.678z
	 M23.467,7.429c-1.166,0-2.109-0.944-2.109-2.109v-2.21C21.357,1.944,22.301,1,23.467,1c1.165,0,2.109,0.944,2.109,2.109v2.21
	C25.576,6.485,24.632,7.429,23.467,7.429z M8.467,7.429c-1.166,0-2.109-0.944-2.109-2.109v-2.21C6.357,1.944,7.301,1,8.467,1
	c1.165,0,2.109,0.944,2.109,2.109v2.21C10.576,6.485,9.632,7.429,8.467,7.429z"/>
</svg>
