<?xml version="1.0" encoding="utf-8"?>
<!-- Generator: Adobe Illustrator 16.0.0, SVG Export Plug-In . SVG Version: 6.00 Build 0)  -->
<!DOCTYPE svg PUBLIC "-//W3C//DTD SVG 1.1//EN" "http://www.w3.org/Graphics/SVG/1.1/DTD/svg11.dtd">
<svg version="1.1" id="Layer_1" xmlns="http://www.w3.org/2000/svg" xmlns:xlink="http://www.w3.org/1999/xlink" x="0px" y="0px"
	 width="32px" height="32px" viewBox="0 0 32 32" enable-background="new 0 0 32 32" xml:space="preserve">
<path d="M30.062,12.25H19.75V1.938C19.75,1.42,19.33,1,18.812,1h-5.625C12.67,1,12.25,1.42,12.25,1.938V12.25H1.938
	C1.42,12.25,1,12.67,1,13.188v5.625c0,0.518,0.42,0.938,0.938,0.938H12.25v10.312c0,0.518,0.42,0.938,0.938,0.938h5.625
	c0.518,0,0.938-0.42,0.938-0.938V19.75h10.312c0.518,0,0.938-0.42,0.938-0.938v-5.625C31,12.67,30.58,12.25,30.062,12.25z"/>
</svg>
