<?xml version="1.0" encoding="utf-8"?>
<!-- Generator: Adobe Illustrator 16.0.0, SVG Export Plug-In . SVG Version: 6.00 Build 0)  -->
<!DOCTYPE svg PUBLIC "-//W3C//DTD SVG 1.1//EN" "http://www.w3.org/Graphics/SVG/1.1/DTD/svg11.dtd">
<svg version="1.1" id="Layer_1" xmlns="http://www.w3.org/2000/svg" xmlns:xlink="http://www.w3.org/1999/xlink" x="0px" y="0px"
	 width="32px" height="32px" viewBox="0 0 32 32" enable-background="new 0 0 32 32" xml:space="preserve">
<path d="M20.678,16l9.354-9.354c1.289-1.292,1.29-3.387,0-4.678c-1.292-1.291-3.387-1.291-4.678,0L16,11.323L6.646,1.969
	c-1.29-1.291-3.386-1.291-4.678,0c-1.29,1.291-1.29,3.386,0,4.678L11.322,16l-9.354,9.354c-1.289,1.29-1.29,3.386,0,4.677
	c1.292,1.291,3.388,1.291,4.678,0L16,20.678l9.354,9.354c1.291,1.291,3.386,1.291,4.678,0c1.289-1.291,1.29-3.387,0-4.677L20.678,16
	z"/>
</svg>
