<?xml version="1.0" encoding="utf-8"?>
<!-- Generator: Adobe Illustrator 16.0.0, SVG Export Plug-In . SVG Version: 6.00 Build 0)  -->
<!DOCTYPE svg PUBLIC "-//W3C//DTD SVG 1.1//EN" "http://www.w3.org/Graphics/SVG/1.1/DTD/svg11.dtd">
<svg version="1.1" id="Layer_1" xmlns="http://www.w3.org/2000/svg" xmlns:xlink="http://www.w3.org/1999/xlink" x="0px" y="0px"
	 width="32px" height="32px" viewBox="0 0 32 32" enable-background="new 0 0 32 32" xml:space="preserve">
<path d="M31,28.009l-10.019-10.02c2.846-4.242,2.396-10.051-1.35-13.797C15.374-0.067,8.451-0.065,4.193,4.193v0.001
	c-4.258,4.258-4.258,11.18,0,15.438c3.746,3.746,9.555,4.195,13.797,1.35l10.019,10.02L31,28.009z M5.031,18.794
	c-3.806-3.804-3.806-9.956,0-13.761V5.032c3.805-3.806,9.957-3.807,13.763-0.001c3.805,3.805,3.805,9.959,0,13.763
	C14.988,22.601,8.836,22.599,5.031,18.794z"/>
</svg>
