<?xml version="1.0" encoding="utf-8"?>
<!-- Generator: Adobe Illustrator 16.0.0, SVG Export Plug-In . SVG Version: 6.00 Build 0)  -->
<!DOCTYPE svg PUBLIC "-//W3C//DTD SVG 1.1//EN" "http://www.w3.org/Graphics/SVG/1.1/DTD/svg11.dtd">
<svg version="1.1" id="Layer_1" xmlns="http://www.w3.org/2000/svg" xmlns:xlink="http://www.w3.org/1999/xlink" x="0px" y="0px"
	 width="32px" height="32px" viewBox="0 0 32 32" enable-background="new 0 0 32 32" xml:space="preserve">
<path d="M16.723,31c-0.681,0-1.257-0.236-1.733-0.713L2.435,17.752c-0.477-0.5-0.713-1.086-0.713-1.752
	c0-0.679,0.236-1.256,0.713-1.732L14.989,1.732C15.451,1.246,16.029,1,16.723,1c0.68,0,1.265,0.246,1.752,0.732l1.444,1.424
	c0.476,0.501,0.712,1.086,0.712,1.752c0,0.68-0.236,1.257-0.712,1.734l-5.661,5.66h13.556c0.667,0,1.244,0.246,1.733,0.732
	c0.487,0.488,0.731,1.066,0.731,1.732v2.465c0,0.666-0.244,1.244-0.731,1.732c-0.489,0.486-1.066,0.732-1.733,0.732H14.258
	l5.661,5.66c0.476,0.478,0.712,1.055,0.712,1.734c0,0.666-0.236,1.251-0.712,1.752l-1.444,1.443C17.974,30.764,17.389,31,16.723,31z
	"/>
</svg>
