<?xml version="1.0" encoding="utf-8"?>
<!-- Generator: Adobe Illustrator 16.0.0, SVG Export Plug-In . SVG Version: 6.00 Build 0)  -->
<!DOCTYPE svg PUBLIC "-//W3C//DTD SVG 1.1//EN" "http://www.w3.org/Graphics/SVG/1.1/DTD/svg11.dtd">
<svg version="1.1" id="Layer_1" xmlns="http://www.w3.org/2000/svg" xmlns:xlink="http://www.w3.org/1999/xlink" x="0px" y="0px"
	 width="32px" height="32px" viewBox="0 0 32 32" enable-background="new 0 0 32 32" xml:space="preserve">
<path d="M16,29.768l-2.183-1.972c-2.488-2.254-4.296-3.92-5.423-5s-2.383-2.418-3.768-4.014c-1.385-1.598-2.336-3.041-2.851-4.332
	C1.26,13.159,1.002,11.834,1,10.473c0-2.301,0.786-4.249,2.359-5.847c1.572-1.596,3.532-2.394,5.88-2.394
	c2.724,0,4.977,1.056,6.761,3.168c1.784-2.112,4.037-3.168,6.761-3.168c2.348,0,4.308,0.798,5.88,2.394
	C30.214,6.224,31,8.172,31,10.473c0,1.83-0.61,3.732-1.831,5.704c-1.222,1.972-2.547,3.685-3.979,5.141
	c-1.433,1.455-3.768,3.638-7.008,6.549L16,29.768z"/>
</svg>
