<?xml version="1.0" encoding="utf-8"?>
<!-- Generator: Adobe Illustrator 16.0.0, SVG Export Plug-In . SVG Version: 6.00 Build 0)  -->
<!DOCTYPE svg PUBLIC "-//W3C//DTD SVG 1.1//EN" "http://www.w3.org/Graphics/SVG/1.1/DTD/svg11.dtd">
<svg version="1.1" id="Layer_1" xmlns="http://www.w3.org/2000/svg" xmlns:xlink="http://www.w3.org/1999/xlink" x="0px" y="0px"
	 width="32px" height="32px" viewBox="0 0 32 32" enable-background="new 0 0 32 32" xml:space="preserve">
<path d="M1.352,9.793l3.089-3.07C4.678,6.49,4.957,6.371,5.28,6.371S5.883,6.49,6.12,6.723L16,16.605l9.88-9.883
	c0.237-0.232,0.517-0.352,0.84-0.352s0.603,0.119,0.84,0.352l3.089,3.07C30.882,10.03,31,10.31,31,10.641
	c0,0.327-0.118,0.609-0.352,0.847L16.84,25.276c-0.237,0.235-0.517,0.353-0.84,0.353s-0.603-0.117-0.84-0.353L1.352,11.487
	C1.118,11.25,1,10.968,1,10.641C1,10.31,1.118,10.03,1.352,9.793z"/>
</svg>
