<?xml version="1.0" encoding="utf-8"?>
<!-- Generator: Adobe Illustrator 16.0.0, SVG Export Plug-In . SVG Version: 6.00 Build 0)  -->
<!DOCTYPE svg PUBLIC "-//W3C//DTD SVG 1.1//EN" "http://www.w3.org/Graphics/SVG/1.1/DTD/svg11.dtd">
<svg version="1.1" id="Layer_1" xmlns="http://www.w3.org/2000/svg" xmlns:xlink="http://www.w3.org/1999/xlink" x="0px" y="0px"
	 width="32px" height="32px" viewBox="0 0 32 32" enable-background="new 0 0 32 32" xml:space="preserve">
<path d="M22.207,1.352l3.07,3.089c0.232,0.237,0.352,0.517,0.352,0.84s-0.119,0.603-0.352,0.84L15.395,16l9.883,9.88
	c0.232,0.237,0.352,0.517,0.352,0.84s-0.119,0.603-0.352,0.84l-3.07,3.089C21.97,30.882,21.69,31,21.359,31
	c-0.327,0-0.609-0.118-0.847-0.352L6.724,16.84C6.488,16.603,6.371,16.323,6.371,16s0.117-0.603,0.353-0.84L20.513,1.352
	C20.75,1.118,21.032,1,21.359,1C21.69,1,21.97,1.118,22.207,1.352z"/>
</svg>
