<?xml version="1.0" encoding="utf-8"?>
<!-- Generator: Adobe Illustrator 16.0.0, SVG Export Plug-In . SVG Version: 6.00 Build 0)  -->
<!DOCTYPE svg PUBLIC "-//W3C//DTD SVG 1.1//EN" "http://www.w3.org/Graphics/SVG/1.1/DTD/svg11.dtd">
<svg version="1.1" id="Layer_1" xmlns="http://www.w3.org/2000/svg" xmlns:xlink="http://www.w3.org/1999/xlink" x="0px" y="0px"
	 width="32px" height="32px" viewBox="0 0 32 32" enable-background="new 0 0 32 32" xml:space="preserve">
<path d="M30.648,22.207l-3.089,3.07c-0.237,0.232-0.517,0.352-0.84,0.352s-0.603-0.119-0.84-0.352L16,15.395l-9.88,9.883
	c-0.237,0.232-0.517,0.352-0.84,0.352s-0.603-0.119-0.84-0.352l-3.089-3.07C1.118,21.97,1,21.69,1,21.359
	c0-0.327,0.118-0.609,0.352-0.847L15.16,6.724c0.237-0.235,0.517-0.353,0.84-0.353s0.603,0.117,0.84,0.353l13.809,13.789
	C30.882,20.75,31,21.032,31,21.359C31,21.69,30.882,21.97,30.648,22.207z"/>
</svg>
