<?xml version="1.0" encoding="utf-8"?>
<!-- Generator: Adobe Illustrator 16.0.0, SVG Export Plug-In . SVG Version: 6.00 Build 0)  -->
<!DOCTYPE svg PUBLIC "-//W3C//DTD SVG 1.1//EN" "http://www.w3.org/Graphics/SVG/1.1/DTD/svg11.dtd">
<svg version="1.1" id="Layer_1" xmlns="http://www.w3.org/2000/svg" xmlns:xlink="http://www.w3.org/1999/xlink" x="0px" y="0px"
	 width="32px" height="32px" viewBox="0 0 32 32" enable-background="new 0 0 32 32" xml:space="preserve">
<g>
	<path d="M22.315,20.725c1.791-1.791,4.707-1.793,6.499,0l0.025,0.029c0.136,0.145,0.376,0.148,0.523,0.006
		c0.146-0.145,0.149-0.375,0.005-0.521c-0.007-0.012-0.019-0.025-0.031-0.037c-2.081-2.078-5.464-2.078-7.543,0
		c-0.144,0.145-0.144,0.379,0,0.523S22.171,20.869,22.315,20.725z"/>
	<path d="M27.689,21.904c0.133,0.146,0.377,0.15,0.522,0.006c0.146-0.143,0.147-0.377,0.006-0.523
		c-0.009-0.012-0.02-0.021-0.032-0.033c-1.445-1.447-3.799-1.447-5.244,0c-0.144,0.145-0.144,0.377,0,0.521
		c0.146,0.145,0.377,0.145,0.521,0c1.158-1.158,3.042-1.156,4.2,0.002L27.689,21.904z"/>
	<path d="M26.596,22.992c0.138,0.139,0.376,0.152,0.523,0.012s0.152-0.375,0.012-0.523c0.002,0-0.014-0.021-0.031-0.039
		c-0.846-0.846-2.22-0.844-3.065,0c-0.146,0.146-0.144,0.379,0,0.523c0.146,0.145,0.378,0.145,0.523,0
		c0.553-0.553,1.449-0.557,2.007-0.012C26.573,22.967,26.584,22.98,26.596,22.992z"/>
	<path d="M26.095,23.799c0,0.688-1.034,0.688-1.034,0C25.061,23.109,26.095,23.109,26.095,23.799"/>
	<path d="M30.344,28.088c0,0.256-0.207,0.463-0.461,0.463h-0.669v-2.191h0.669c0.254,0,0.461,0.207,0.461,0.463V28.088z
		 M29.883,25.703h-0.669v-0.014c0-0.053-0.003-0.105-0.007-0.158c-0.014-0.135-0.126-0.236-0.264-0.236h-6.636
		c-0.135,0-0.249,0.104-0.263,0.236c-0.006,0.053-0.007,0.105-0.007,0.158v3.061c0,0.799,0.593,1.459,1.361,1.566
		c0.028,0.012,0.058,0.016,0.09,0.016c0.115,0,0.21,0.096,0.21,0.211c0,0.146,0.119,0.266,0.264,0.266h3.323
		c0.146,0,0.263-0.119,0.263-0.266c0-0.115,0.095-0.211,0.211-0.211c0.031,0,0.061-0.004,0.089-0.016
		c0.614-0.086,1.116-0.525,1.294-1.105h0.736c0.618,0,1.121-0.504,1.121-1.121v-1.266C31.004,26.203,30.5,25.703,29.883,25.703z"/>
	<path d="M12.34,29.51c-0.026,0.24-0.229,0.318-0.476,0.318H9.627c-0.247,0-0.448-0.078-0.475-0.318H1
		c0,0.715,0.26,1.293,0.974,1.293H19.53c0.714,0,0.958-0.578,0.958-1.293H12.34z"/>
	<path d="M3.876,18.982h13.738v8.627H3.876V18.982z M18.183,28.887c0.392,0,0.709-0.318,0.709-0.711v-9.762
		c0-0.393-0.317-0.711-0.709-0.711H3.308c-0.392,0-0.711,0.318-0.711,0.711v9.762c0,0.393,0.317,0.711,0.711,0.711H18.183z"/>
	<path d="M1.167,10.477c0,0.02,0,0.037,0,0.055c0.002,0.067,0.035,0.126,0.084,0.165c0.064,0.075,0.161,0.123,0.269,0.123
		c0.537,0,0.789,0.11,1.081,0.24c0.319,0.141,0.681,0.3,1.366,0.3c0.687,0,1.048-0.159,1.367-0.3c0.291-0.128,0.544-0.24,1.081-0.24
		c0.536,0,0.789,0.11,1.08,0.24c0.319,0.141,0.682,0.3,1.367,0.3c0.687,0,1.048-0.159,1.367-0.3c0.291-0.128,0.544-0.24,1.081-0.24
		c0.536,0,0.789,0.11,1.08,0.24c0.319,0.141,0.681,0.3,1.367,0.3c0.686,0,1.048-0.159,1.367-0.3c0.291-0.128,0.544-0.24,1.08-0.24
		c0.537,0,0.79,0.11,1.081,0.24c0.319,0.141,0.681,0.3,1.367,0.3c0.686,0,1.047-0.159,1.366-0.3c0.292-0.128,0.544-0.24,1.081-0.24
		s0.79,0.11,1.081,0.24c0.317,0.141,0.681,0.3,1.367,0.3c0.686,0,1.047-0.159,1.366-0.3c0.283-0.124,0.528-0.233,1.035-0.24
		c0.506,0.007,0.753,0.114,1.035,0.24c0.283,0.124,0.601,0.265,1.147,0.295v0.007c0.037,0,0.074-0.002,0.109-0.002
		c0.035,0.002,0.071,0.002,0.108,0.002v-0.007c0.548-0.03,0.865-0.171,1.147-0.295c0.293-0.128,0.544-0.24,1.083-0.24
		c0.194,0,0.353-0.158,0.353-0.354c0-0.195-0.158-0.354-0.353-0.354c-0.687,0-1.05,0.159-1.367,0.3
		c-0.271,0.119-0.509,0.225-0.972,0.239c-0.464-0.015-0.7-0.12-0.973-0.239c-0.298-0.131-0.633-0.278-1.238-0.298
		c-0.013-0.002-0.024-0.002-0.037-0.002c-0.016,0-0.029,0-0.045,0c-0.015,0-0.03,0-0.046,0c-0.013,0-0.024,0-0.037,0.002
		c-0.604,0.02-0.94,0.167-1.238,0.298c-0.292,0.13-0.544,0.24-1.081,0.24s-0.79-0.11-1.083-0.24
		c-0.181-0.079-0.373-0.164-0.633-0.225c-0.099-0.034-0.2-0.068-0.308-0.105c-0.216-0.071-0.454-0.152-0.735-0.25
		c0.198-0.348,0.372-0.724,0.521-1.12c0.227-0.604,0.398-1.265,0.509-1.963c0.07-0.437,0.107-0.832,0.126-1.16
		c1.622,1.993,3.778,2.423,3.778,2.423c-0.174-1.079-0.671-1.884-1.551-2.736c-0.178-0.172-0.354-0.323-0.527-0.456
		c1.669,0.618,3.394,0.535,3.394,0.535c-0.258-0.672-0.84-1.107-1.837-1.502c-0.509-0.202-1.002-0.321-1.451-0.386
		c1.229-0.786,1.819-1.767,1.819-1.767c-0.912-0.177-1.703-0.007-2.647,0.463c-0.47,0.235-0.839,0.5-1.128,0.764
		c-1.239-1.613-2.737-1.734-2.737-1.734c0.277,0.916,0.511,1.463,1.178,2.125c0.01,0.01,0.019,0.019,0.029,0.029
		c-2.442-0.321-4.262,0.816-4.262,0.816c0.815,0.635,1.687,0.864,2.86,0.874c0.258,0.002,0.5-0.013,0.726-0.039
		c-1.556,0.788-2.478,2.066-2.478,2.066c0.786,0.241,1.536,0.102,2.483-0.353c0.693-0.333,1.202-0.748,1.568-1.133
		c-0.062,0.978-0.293,2.59-1.116,3.978c-0.554-0.216-1.24-0.502-2.124-0.903c-4.603-2.09-5.912-5.385-6.542-6.969
		c-0.045-0.118-0.089-0.227-0.13-0.325c-0.033-0.082-0.113-0.134-0.203-0.134H7.195c-0.095,0-0.179,0.061-0.209,0.151
		C6.858,1.768,6.676,2.392,6.442,3.229C5.979,4.894,4.894,6.247,4.063,7.087C3.158,8.005,2.35,8.532,2.344,8.537
		c-0.854,0.545-1.165,1.35-1.175,1.913c0,0.007-0.002,0.012-0.002,0.021C1.167,10.471,1.167,10.474,1.167,10.477z"/>
	<path d="M1.521,12.502c0.536,0,0.789,0.11,1.08,0.24c0.319,0.141,0.682,0.3,1.367,0.3c0.687,0,1.048-0.159,1.367-0.3
		c0.291-0.13,0.544-0.24,1.08-0.24c0.537,0,0.79,0.11,1.081,0.24c0.319,0.141,0.681,0.3,1.367,0.3c0.686,0,1.048-0.159,1.367-0.3
		c0.291-0.13,0.544-0.24,1.08-0.24c0.537,0,0.79,0.11,1.081,0.24c0.319,0.141,0.681,0.3,1.367,0.3c0.686,0,1.047-0.159,1.366-0.3
		c0.292-0.13,0.544-0.24,1.081-0.24s0.79,0.11,1.081,0.24c0.319,0.141,0.681,0.3,1.367,0.3c0.686,0,1.047-0.159,1.366-0.3
		c0.291-0.13,0.544-0.24,1.081-0.24s0.79,0.11,1.081,0.24c0.317,0.141,0.681,0.3,1.366,0.3c0.687,0,1.048-0.159,1.367-0.3
		c0.269-0.119,0.504-0.223,0.958-0.238c0.011,0.002,0.021,0.002,0.031,0.002c0.537,0,0.79,0.11,1.081,0.24
		c0.282,0.124,0.601,0.265,1.147,0.294v0.006c0.037,0,0.074,0,0.109-0.002c0.035,0.002,0.071,0.002,0.108,0.002v-0.006
		c0.548-0.029,0.865-0.17,1.147-0.294c0.293-0.128,0.544-0.24,1.083-0.24c0.194,0,0.353-0.158,0.353-0.354
		c0-0.195-0.158-0.353-0.353-0.353c-0.687,0-1.05,0.159-1.367,0.299c-0.272,0.12-0.509,0.225-0.972,0.239
		c-0.464-0.015-0.7-0.119-0.973-0.239c-0.292-0.13-0.621-0.273-1.205-0.296c-0.021-0.005-0.046-0.007-0.068-0.007
		c-0.687,0-1.048,0.159-1.367,0.3c-0.292,0.13-0.544,0.24-1.081,0.24c-0.536,0-0.789-0.11-1.082-0.24
		c-0.319-0.141-0.681-0.3-1.367-0.3c-0.686,0-1.047,0.159-1.366,0.3c-0.292,0.13-0.544,0.24-1.081,0.24s-0.79-0.11-1.081-0.24
		c-0.319-0.141-0.681-0.3-1.367-0.3c-0.686,0-1.047,0.159-1.366,0.3c-0.292,0.13-0.544,0.24-1.081,0.24s-0.79-0.11-1.081-0.24
		c-0.319-0.141-0.681-0.3-1.366-0.3c-0.687,0-1.048,0.159-1.367,0.3c-0.291,0.13-0.544,0.24-1.081,0.24s-0.789-0.11-1.081-0.24
		c-0.319-0.141-0.681-0.3-1.366-0.3c-0.687,0-1.048,0.159-1.367,0.3c-0.291,0.13-0.544,0.24-1.081,0.24s-0.789-0.11-1.08-0.24
		c-0.319-0.141-0.682-0.3-1.367-0.3c-0.195,0-0.354,0.157-0.354,0.354C1.167,12.344,1.326,12.502,1.521,12.502z"/>
	<path d="M23.536,14.723c0.687,0,1.048-0.159,1.367-0.3c0.277-0.122,0.518-0.229,1.002-0.238c0.001,0,0.003,0,0.005,0
		c0.537,0,0.79,0.112,1.081,0.24c0.282,0.125,0.6,0.265,1.147,0.295v0.007c0.037,0,0.073,0,0.108-0.002
		c0.035,0.002,0.072,0.002,0.109,0.002V14.72c0.547-0.03,0.864-0.17,1.147-0.295c0.293-0.128,0.544-0.24,1.082-0.24
		c0.195,0,0.353-0.158,0.353-0.354c0-0.195-0.157-0.354-0.353-0.354c-0.686,0-1.049,0.159-1.366,0.3
		c-0.272,0.119-0.509,0.225-0.973,0.239c-0.463-0.015-0.7-0.12-0.972-0.239c-0.3-0.131-0.639-0.28-1.249-0.298
		c-0.015-0.002-0.028-0.004-0.043-0.004c-0.686,0-1.049,0.16-1.366,0.301c-0.291,0.128-0.544,0.24-1.081,0.24
		s-0.789-0.112-1.083-0.24c-0.317-0.141-0.681-0.301-1.366-0.301c-0.687,0-1.048,0.16-1.367,0.301
		c-0.291,0.128-0.544,0.24-1.081,0.24c-0.536,0-0.789-0.112-1.08-0.24c-0.319-0.141-0.681-0.301-1.367-0.301
		s-1.048,0.16-1.367,0.301c-0.291,0.128-0.544,0.24-1.08,0.24c-0.537,0-0.79-0.112-1.081-0.24c-0.319-0.141-0.681-0.301-1.367-0.301
		c-0.686,0-1.047,0.16-1.366,0.301c-0.292,0.128-0.544,0.24-1.081,0.24s-0.79-0.112-1.081-0.24
		c-0.319-0.141-0.681-0.301-1.367-0.301c-0.686,0-1.047,0.16-1.366,0.301c-0.292,0.128-0.544,0.24-1.081,0.24
		c-0.539,0-0.79-0.112-1.081-0.24c-0.319-0.141-0.681-0.301-1.366-0.301c-0.195,0-0.354,0.158-0.354,0.354
		c0,0.195,0.157,0.353,0.354,0.353c0.536,0,0.789,0.11,1.08,0.24c0.319,0.141,0.681,0.301,1.367,0.301
		c0.686,0,1.048-0.16,1.367-0.301c0.291-0.128,0.544-0.24,1.08-0.24c0.537,0,0.79,0.11,1.081,0.24
		c0.319,0.141,0.681,0.301,1.367,0.301c0.686,0,1.047-0.16,1.366-0.301c0.292-0.128,0.544-0.24,1.083-0.24
		c0.537,0,0.789,0.11,1.081,0.24c0.319,0.141,0.681,0.301,1.366,0.301c0.687,0,1.048-0.16,1.367-0.301
		c0.291-0.128,0.544-0.24,1.081-0.24s0.789,0.11,1.081,0.24c0.319,0.141,0.681,0.301,1.366,0.301c0.687,0,1.048-0.16,1.367-0.301
		c0.291-0.128,0.544-0.24,1.081-0.24c0.536,0,0.789,0.11,1.08,0.24C22.488,14.564,22.851,14.723,23.536,14.723z"/>
</g>
</svg>
