<?xml version="1.0" encoding="utf-8"?>
<!-- Generator: Adobe Illustrator 16.0.0, SVG Export Plug-In . SVG Version: 6.00 Build 0)  -->
<!DOCTYPE svg PUBLIC "-//W3C//DTD SVG 1.1//EN" "http://www.w3.org/Graphics/SVG/1.1/DTD/svg11.dtd">
<svg version="1.1" id="Layer_1" xmlns="http://www.w3.org/2000/svg" xmlns:xlink="http://www.w3.org/1999/xlink" x="0px" y="0px"
	 width="32px" height="32px" viewBox="0 0 32 32" enable-background="new 0 0 32 32" xml:space="preserve">
<path d="M9.793,30.648l-3.07-3.089c-0.232-0.237-0.352-0.517-0.352-0.84s0.119-0.603,0.352-0.84L16.605,16L6.723,6.12
	C6.49,5.883,6.371,5.604,6.371,5.28S6.49,4.678,6.723,4.44l3.07-3.089C10.03,1.118,10.31,1,10.641,1
	c0.327,0,0.609,0.118,0.847,0.352L25.276,15.16c0.235,0.237,0.353,0.517,0.353,0.84s-0.117,0.603-0.353,0.84L11.487,30.648
	C11.25,30.882,10.968,31,10.641,31C10.31,31,10.03,30.882,9.793,30.648z"/>
</svg>
