<?xml version="1.0" encoding="utf-8"?>
<!-- Generator: Adobe Illustrator 16.0.0, SVG Export Plug-In . SVG Version: 6.00 Build 0)  -->
<!DOCTYPE svg PUBLIC "-//W3C//DTD SVG 1.1//EN" "http://www.w3.org/Graphics/SVG/1.1/DTD/svg11.dtd">
<svg version="1.1" id="Layer_1" xmlns="http://www.w3.org/2000/svg" xmlns:xlink="http://www.w3.org/1999/xlink" x="0px" y="0px"
	 width="32px" height="32px" viewBox="0 0 32 32" enable-background="new 0 0 32 32" xml:space="preserve">
<path d="M15.277,1c0.681,0,1.257,0.236,1.733,0.713l12.555,12.535c0.477,0.5,0.713,1.086,0.713,1.752
	c0,0.679-0.236,1.256-0.713,1.732L17.011,30.268C16.549,30.754,15.971,31,15.277,31c-0.68,0-1.265-0.246-1.752-0.732l-1.444-1.424
	c-0.476-0.501-0.712-1.086-0.712-1.752c0-0.68,0.236-1.257,0.712-1.734l5.661-5.66H4.187c-0.667,0-1.244-0.246-1.733-0.732
	c-0.487-0.488-0.731-1.066-0.731-1.732v-2.465c0-0.666,0.244-1.244,0.731-1.732c0.489-0.486,1.066-0.732,1.733-0.732h13.556
	l-5.661-5.66c-0.476-0.478-0.712-1.055-0.712-1.734c0-0.666,0.236-1.251,0.712-1.752l1.444-1.443C14.026,1.236,14.611,1,15.277,1z"
	/>
</svg>
