<?xml version="1.0" encoding="utf-8"?>
<!-- Generator: Adobe Illustrator 16.0.0, SVG Export Plug-In . SVG Version: 6.00 Build 0)  -->
<!DOCTYPE svg PUBLIC "-//W3C//DTD SVG 1.1//EN" "http://www.w3.org/Graphics/SVG/1.1/DTD/svg11.dtd">
<svg version="1.1" id="Layer_1" xmlns="http://www.w3.org/2000/svg" xmlns:xlink="http://www.w3.org/1999/xlink" x="0px" y="0px"
	 width="32px" height="32px" viewBox="0 0 32 32" enable-background="new 0 0 32 32" xml:space="preserve">
<path d="M8.542,16c0,0.994-0.38,1.871-1.139,2.632c-0.761,0.761-1.638,1.141-2.632,1.141c-0.995,0-1.872-0.38-2.633-1.141
	C1.381,17.871,1,16.994,1,16s0.381-1.872,1.139-2.633c0.761-0.76,1.638-1.14,2.633-1.14c0.994,0,1.871,0.38,2.632,1.14
	C8.162,14.128,8.542,15.006,8.542,16z M19.773,16c0,0.994-0.381,1.871-1.14,2.632c-0.761,0.761-1.638,1.141-2.632,1.141
	c-0.995,0-1.872-0.38-2.633-1.141C12.611,17.871,12.23,16.994,12.23,16s0.381-1.872,1.139-2.633c0.761-0.76,1.638-1.14,2.633-1.14
	c0.994,0,1.871,0.38,2.632,1.14C19.393,14.128,19.773,15.006,19.773,16z M23.457,16c0-0.994,0.38-1.872,1.139-2.633
	c0.761-0.76,1.639-1.14,2.633-1.14s1.871,0.38,2.632,1.14C30.62,14.128,31,15.006,31,16s-0.38,1.871-1.14,2.632
	c-0.761,0.761-1.638,1.141-2.632,1.141s-1.872-0.38-2.633-1.141C23.837,17.871,23.457,16.994,23.457,16z"/>
</svg>
