<?xml version="1.0" encoding="utf-8"?>
<!-- Generator: Adobe Illustrator 16.0.0, SVG Export Plug-In . SVG Version: 6.00 Build 0)  -->
<!DOCTYPE svg PUBLIC "-//W3C//DTD SVG 1.1//EN" "http://www.w3.org/Graphics/SVG/1.1/DTD/svg11.dtd">
<svg version="1.1" id="Layer_1" xmlns="http://www.w3.org/2000/svg" xmlns:xlink="http://www.w3.org/1999/xlink" x="0px" y="0px"
	 width="32px" height="32px" viewBox="0 0 32 32" enable-background="new 0 0 32 32" xml:space="preserve">
<path d="M3.217,20.503c-0.336,0-0.605-0.269-0.605-0.605V6.491c0-0.336,0.27-0.605,0.605-0.605h25.638
	c0.336,0,0.605,0.27,0.605,0.605v13.373c0,0.336-0.27,0.605-0.605,0.605H3.217V20.503z M29.122,4.274H2.881
	C1.84,4.274,1,5.114,1,6.155v15.558c0,1.041,0.84,1.881,1.881,1.881h10.752v1.848l-2.621,1.21c-0.537,0.234-0.369,1.074,0.234,1.074
	h9.609c0.605,0,0.773-0.807,0.234-1.074l-2.621-1.21v-1.848h10.65c1.041,0,1.881-0.84,1.881-1.881V6.155
	C31.005,5.114,30.165,4.274,29.122,4.274z"/>
</svg>
