<?xml version="1.0" encoding="utf-8"?>
<!-- Generator: Adobe Illustrator 16.0.0, SVG Export Plug-In . SVG Version: 6.00 Build 0)  -->
<!DOCTYPE svg PUBLIC "-//W3C//DTD SVG 1.1//EN" "http://www.w3.org/Graphics/SVG/1.1/DTD/svg11.dtd">
<svg version="1.1" id="Layer_1" xmlns="http://www.w3.org/2000/svg" xmlns:xlink="http://www.w3.org/1999/xlink" x="0px" y="0px"
	 width="32px" height="32px" viewBox="0 0 32 32" enable-background="new 0 0 32 32" xml:space="preserve">
<g>
	<path d="M27.065,5.873C24.323,2.878,20.381,1,16,1C7.716,1,1,7.715,1,16h2.812C3.812,9.269,9.269,3.812,16,3.812
		c3.604,0,6.842,1.564,9.073,4.052l-4.386,4.385H31V1.938L27.065,5.873L27.065,5.873z"/>
	<path d="M28.188,16c0,6.73-5.457,12.188-12.188,12.188c-3.604,0-6.842-1.564-9.073-4.052l4.386-4.386H1v10.312l3.935-3.935
		C7.677,29.122,11.619,31,16,31c8.284,0,15-6.716,15-15H28.188z"/>
</g>
</svg>
