<?xml version="1.0" encoding="utf-8"?>
<!-- Generator: Adobe Illustrator 16.0.0, SVG Export Plug-In . SVG Version: 6.00 Build 0)  -->
<!DOCTYPE svg PUBLIC "-//W3C//DTD SVG 1.1//EN" "http://www.w3.org/Graphics/SVG/1.1/DTD/svg11.dtd">
<svg version="1.1" id="Layer_1" xmlns="http://www.w3.org/2000/svg" xmlns:xlink="http://www.w3.org/1999/xlink" x="0px" y="0px"
	 width="32px" height="32px" viewBox="0 0 32 32" enable-background="new 0 0 32 32" xml:space="preserve">
<path d="M29.565,1H18.093c-0.789,0-1.891,0.456-2.448,1.014L1.418,16.24c-0.558,0.559-0.558,1.472,0,2.028l12.314,12.314
	c0.556,0.558,1.47,0.558,2.027,0l14.227-14.226C30.542,15.798,31,14.697,31,13.908V2.434C31,1.646,30.354,1,29.565,1z
	 M22.395,12.474c-1.584,0-2.868-1.284-2.868-2.869s1.284-2.868,2.868-2.868c1.585,0,2.869,1.284,2.869,2.868
	S23.979,12.474,22.395,12.474z"/>
</svg>
