<?xml version="1.0" encoding="utf-8"?>
<!-- Generator: Adobe Illustrator 16.0.0, SVG Export Plug-In . SVG Version: 6.00 Build 0)  -->
<!DOCTYPE svg PUBLIC "-//W3C//DTD SVG 1.1//EN" "http://www.w3.org/Graphics/SVG/1.1/DTD/svg11.dtd">
<svg version="1.1" id="Layer_1" xmlns="http://www.w3.org/2000/svg" xmlns:xlink="http://www.w3.org/1999/xlink" x="0px" y="0px"
	 width="32px" height="32px" viewBox="0 0 32 32" enable-background="new 0 0 32 32" xml:space="preserve">
<path d="M16,23.458c0.994,0,1.871,0.38,2.632,1.139c0.761,0.761,1.141,1.638,1.141,2.632c0,0.995-0.38,1.872-1.141,2.633
	C17.871,30.619,16.994,31,16,31s-1.872-0.381-2.633-1.139c-0.76-0.761-1.14-1.638-1.14-2.633c0-0.994,0.38-1.871,1.14-2.632
	C14.128,23.838,15.006,23.458,16,23.458z M16,12.227c0.994,0,1.871,0.38,2.632,1.14c0.761,0.76,1.141,1.638,1.141,2.632
	s-0.38,1.872-1.141,2.632C17.871,19.389,16.994,19.77,16,19.77s-1.872-0.381-2.633-1.139c-0.76-0.761-1.14-1.638-1.14-2.632
	s0.38-1.872,1.14-2.632C14.128,12.607,15.006,12.227,16,12.227z M16,8.543c-0.994,0-1.872-0.38-2.633-1.14
	c-0.76-0.76-1.14-1.638-1.14-2.632c0-0.994,0.38-1.872,1.14-2.632C14.128,1.38,15.006,1,16,1s1.871,0.38,2.632,1.14
	c0.761,0.76,1.141,1.638,1.141,2.632c0,0.995-0.38,1.872-1.141,2.632C17.871,8.163,16.994,8.543,16,8.543z"/>
</svg>
