<?xml version="1.0" encoding="utf-8"?>
<!-- Generator: Adobe Illustrator 16.0.0, SVG Export Plug-In . SVG Version: 6.00 Build 0)  -->
<!DOCTYPE svg PUBLIC "-//W3C//DTD SVG 1.1//EN" "http://www.w3.org/Graphics/SVG/1.1/DTD/svg11.dtd">
<svg version="1.1" id="Layer_1" xmlns="http://www.w3.org/2000/svg" xmlns:xlink="http://www.w3.org/1999/xlink" x="0px" y="0px"
	 width="32px" height="32px" viewBox="0 0 32 32" enable-background="new 0 0 32 32" xml:space="preserve">
<path d="M12.725,13.023c-1.627,0-2.977,1.32-2.977,2.977c0,1.627,1.32,2.977,2.977,2.977c1.658,0,2.977-1.322,2.977-2.977
	C15.671,14.372,14.351,13.023,12.725,13.023z M12.725,11.58c2.455,0,4.42,1.994,4.42,4.42c0,2.456-1.995,4.42-4.42,4.42
	s-4.45-1.965-4.45-4.42C8.274,13.543,10.27,11.58,12.725,11.58z M10.944,16c0,0.981,0.797,1.78,1.78,1.78
	c0.981,0,1.749-0.798,1.749-1.78s-0.798-1.781-1.781-1.781C11.711,14.218,10.944,15.018,10.944,16z M28.531,9.768
	c-0.153-0.214-0.431-0.214-0.584,0l-2.395,3.499c-0.153,0.246,0,0.554,0.276,0.554h0.921v8.931c0,0.275,0.215,0.459,0.461,0.459
	h2.087c0.277,0,0.461-0.213,0.461-0.459v-8.931h0.891c0.276,0,0.46-0.308,0.276-0.554L28.531,9.768z M21.226,18.24h-2.088
	c-0.276,0-0.46,0.215-0.46,0.461v4.082c0,0.277,0.214,0.461,0.46,0.461h2.088c0.276,0,0.461-0.215,0.461-0.461v-4.082
	C21.687,18.455,21.472,18.24,21.226,18.24z M25.246,16.06h-2.088c-0.276,0-0.46,0.214-0.46,0.46v6.261
	c0,0.277,0.214,0.461,0.46,0.461h2.088c0.276,0,0.46-0.215,0.46-0.461V16.52C25.736,16.276,25.522,16.06,25.246,16.06z
	 M23.16,14.986h1.258v-4.204c0-1.104-0.921-2.025-2.025-2.025H3.025C1.92,8.756,1,9.677,1,10.782v10.435
	c0,1.105,0.92,2.025,2.025,2.025h14.608c-0.061-0.154-0.061-0.307-0.061-0.461v-1.258H5.112c0.03-0.123,0.03-0.246,0.03-0.367
	c0-1.135-0.92-2.057-2.056-2.057c-0.123,0-0.246,0-0.367,0.031V12.87c0.123,0.03,0.246,0.03,0.367,0.03
	c1.136,0,2.056-0.921,2.056-2.057c0-0.122,0-0.245-0.03-0.367h15.069c-0.03,0.153-0.061,0.338-0.061,0.491
	c0,1.135,0.921,2.056,2.056,2.056c0.184,0,0.337-0.031,0.521-0.061v2.088C22.854,15.018,23.007,14.986,23.16,14.986z M6.247,14.771
	c0.675,0,1.229,0.554,1.229,1.229c0,0.674-0.554,1.227-1.229,1.227c-0.674,0-1.228-0.553-1.228-1.227
	C5.02,15.325,5.573,14.771,6.247,14.771z"/>
</svg>
