<?xml version="1.0" encoding="utf-8"?>
<!-- Generator: Adobe Illustrator 16.0.0, SVG Export Plug-In . SVG Version: 6.00 Build 0)  -->
<!DOCTYPE svg PUBLIC "-//W3C//DTD SVG 1.1//EN" "http://www.w3.org/Graphics/SVG/1.1/DTD/svg11.dtd">
<svg version="1.1" id="Layer_1" xmlns="http://www.w3.org/2000/svg" xmlns:xlink="http://www.w3.org/1999/xlink" x="0px" y="0px"
	 width="32px" height="32px" viewBox="0 0 32 32" enable-background="new 0 0 32 32" xml:space="preserve">
<path d="M17.379,3.327c0,0-5.887,0-7.85,0c-3.52,0-6.832,2.666-6.832,5.755c0,3.155,2.399,5.703,5.98,5.703
	c0.249,0,0.49-0.005,0.727-0.022c-0.232,0.445-0.398,0.946-0.398,1.466c0,0.877,0.472,1.588,1.068,2.168
	c-0.45,0-0.886,0.014-1.36,0.014C4.355,18.41,1,21.186,1,24.064c0,2.836,3.678,4.609,8.037,4.609c4.97,0,7.714-2.821,7.714-5.655
	c0-2.273-0.671-3.635-2.745-5.102c-0.709-0.503-2.066-1.724-2.066-2.441c0-0.841,0.24-1.256,1.506-2.246
	c1.3-1.014,2.218-2.44,2.218-4.099c0-1.975-0.879-3.899-2.53-4.535h2.49L17.379,3.327L17.379,3.327z M14.637,22.529
	c0.062,0.264,0.096,0.534,0.096,0.81c0,2.292-1.476,4.081-5.711,4.081c-3.014,0-5.188-1.907-5.188-4.198
	c0-2.245,2.698-4.114,5.711-4.081c0.703,0.007,1.358,0.12,1.953,0.312C13.133,20.591,14.307,21.233,14.637,22.529L14.637,22.529z
	 M9.812,13.985c-2.021-0.061-3.943-2.262-4.293-4.918C5.17,6.411,6.526,4.378,8.549,4.438c2.022,0.061,3.943,2.191,4.294,4.848
	C13.192,11.942,11.834,14.046,9.812,13.985z M25.375,8.952V3.327H23.5v5.625h-5.625v1.875H23.5v5.625h1.875v-5.625H31V8.952H25.375z
	"/>
</svg>
