<?xml version="1.0" encoding="utf-8"?>
<!-- Generator: Adobe Illustrator 16.0.0, SVG Export Plug-In . SVG Version: 6.00 Build 0)  -->
<!DOCTYPE svg PUBLIC "-//W3C//DTD SVG 1.1//EN" "http://www.w3.org/Graphics/SVG/1.1/DTD/svg11.dtd">
<svg version="1.1" id="Layer_1" xmlns="http://www.w3.org/2000/svg" xmlns:xlink="http://www.w3.org/1999/xlink" x="0px" y="0px"
	 width="32px" height="32px" viewBox="0 0 32 32" enable-background="new 0 0 32 32" xml:space="preserve">
<path d="M1,16.723c0-0.681,0.236-1.257,0.713-1.733L14.248,2.435c0.5-0.477,1.086-0.713,1.752-0.713
	c0.679,0,1.256,0.236,1.732,0.713l12.535,12.555C30.754,15.451,31,16.029,31,16.723c0,0.68-0.246,1.265-0.732,1.752l-1.424,1.444
	c-0.501,0.476-1.086,0.712-1.752,0.712c-0.68,0-1.257-0.236-1.734-0.712l-5.66-5.661v13.556c0,0.667-0.246,1.244-0.732,1.733
	c-0.488,0.487-1.066,0.731-1.732,0.731h-2.465c-0.666,0-1.244-0.244-1.732-0.731c-0.486-0.489-0.732-1.066-0.732-1.733V14.258
	l-5.66,5.661c-0.478,0.476-1.055,0.712-1.734,0.712c-0.666,0-1.251-0.236-1.752-0.712l-1.443-1.444C1.236,17.974,1,17.389,1,16.723z
	"/>
</svg>
