<?xml version="1.0" encoding="utf-8"?>
<!-- Generator: Adobe Illustrator 16.0.0, SVG Export Plug-In . SVG Version: 6.00 Build 0)  -->
<!DOCTYPE svg PUBLIC "-//W3C//DTD SVG 1.1//EN" "http://www.w3.org/Graphics/SVG/1.1/DTD/svg11.dtd">
<svg version="1.1" id="Layer_1" xmlns="http://www.w3.org/2000/svg" xmlns:xlink="http://www.w3.org/1999/xlink" x="0px" y="0px"
	 width="32px" height="32px" viewBox="0 0 32 32" enable-background="new 0 0 32 32" xml:space="preserve">
<path d="M16,21.406c1.49,0,2.764-0.528,3.82-1.586c1.058-1.056,1.586-2.329,1.586-3.819s-0.528-2.763-1.586-3.819
	c-1.057-1.058-2.33-1.586-3.82-1.586s-2.764,0.528-3.82,1.586c-1.058,1.056-1.586,2.329-1.586,3.819s0.528,2.763,1.586,3.819
	C13.236,20.878,14.51,21.406,16,21.406z M27.462,17.514l3.244,2.523c0.336,0.24,0.384,0.576,0.144,1.009l-3.1,5.335
	c-0.192,0.336-0.505,0.432-0.938,0.288l-3.82-1.513c-1.009,0.721-1.874,1.225-2.595,1.513l-0.577,4.037
	c-0.096,0.432-0.336,0.648-0.721,0.648H12.9c-0.385,0-0.625-0.217-0.721-0.648l-0.577-4.037c-0.913-0.385-1.778-0.89-2.595-1.513
	l-3.82,1.513c-0.433,0.146-0.745,0.048-0.938-0.288l-3.1-5.335c-0.24-0.433-0.192-0.769,0.144-1.009l3.244-2.523
	C4.49,17.178,4.466,16.673,4.466,16s0.024-1.177,0.072-1.514l-3.244-2.523c-0.336-0.241-0.384-0.575-0.144-1.009l3.1-5.334
	c0.192-0.336,0.505-0.433,0.938-0.289l3.82,1.513c1.006-0.721,1.874-1.224,2.595-1.513l0.577-4.037
	c0.096-0.433,0.336-0.649,0.721-0.649H19.1c0.385,0,0.625,0.216,0.721,0.649l0.577,4.037c0.913,0.385,1.778,0.889,2.595,1.513
	l3.82-1.513c0.433-0.146,0.745-0.048,0.938,0.289l3.1,5.334c0.24,0.434,0.192,0.769-0.144,1.009l-3.244,2.523
	c0.048,0.336,0.072,0.841,0.072,1.514S27.51,17.178,27.462,17.514z"/>
</svg>
