<?xml version="1.0" encoding="utf-8"?>
<!-- Generator: Adobe Illustrator 16.0.0, SVG Export Plug-In . SVG Version: 6.00 Build 0)  -->
<!DOCTYPE svg PUBLIC "-//W3C//DTD SVG 1.1//EN" "http://www.w3.org/Graphics/SVG/1.1/DTD/svg11.dtd">
<svg version="1.1" id="Layer_1" xmlns="http://www.w3.org/2000/svg" xmlns:xlink="http://www.w3.org/1999/xlink" x="0px" y="0px"
	 width="32px" height="32px" viewBox="0 0 32 32" enable-background="new 0 0 32 32" xml:space="preserve">
<path d="M7.923,12.539c0-1.275,1.032-2.308,2.308-2.308s2.308,1.033,2.308,2.308s-1.032,2.308-2.308,2.308
	S7.923,13.813,7.923,12.539z M18.308,13.692l-5.77,5.77l-2.308-2.308L5.615,21.77h20.77L18.308,13.692z M28.692,5.615H3.308
	C2.034,5.615,1,6.649,1,7.923v16.154c0,1.273,1.034,2.308,2.308,2.308h25.385c1.273,0,2.308-1.034,2.308-2.308V7.923
	C31,6.649,29.966,5.615,28.692,5.615z M28.692,24.077H3.308V7.923h25.385V24.077z"/>
</svg>
