<?xml version="1.0" encoding="utf-8"?>
<!-- Generator: Adobe Illustrator 16.0.0, SVG Export Plug-In . SVG Version: 6.00 Build 0)  -->
<!DOCTYPE svg PUBLIC "-//W3C//DTD SVG 1.1//EN" "http://www.w3.org/Graphics/SVG/1.1/DTD/svg11.dtd">
<svg version="1.1" id="Layer_1" xmlns="http://www.w3.org/2000/svg" xmlns:xlink="http://www.w3.org/1999/xlink" x="0px" y="0px"
	 width="32px" height="32px" viewBox="0 0 32 32" enable-background="new 0 0 32 32" xml:space="preserve">
<path d="M26.312,21.624c-1.323,0-2.518,0.55-3.369,1.43l-12.627-6.312c0.038-0.242,0.059-0.49,0.059-0.742s-0.021-0.501-0.059-0.742
	l12.627-6.313c0.852,0.881,2.046,1.431,3.369,1.431c2.589,0,4.688-2.099,4.688-4.688s-2.099-4.688-4.688-4.688
	S21.625,3.1,21.625,5.688c0,0.252,0.021,0.501,0.059,0.742L9.057,12.743c-0.852-0.881-2.046-1.431-3.369-1.431
	C3.099,11.312,1,13.412,1,16c0,2.588,2.099,4.688,4.688,4.688c1.323,0,2.518-0.549,3.369-1.431l12.627,6.313
	c-0.038,0.241-0.059,0.488-0.059,0.741c0,2.588,2.099,4.688,4.688,4.688S31,28.899,31,26.312S28.901,21.624,26.312,21.624z"/>
</svg>
