<?xml version="1.0" encoding="utf-8"?>
<!-- Generator: Adobe Illustrator 16.0.0, SVG Export Plug-In . SVG Version: 6.00 Build 0)  -->
<!DOCTYPE svg PUBLIC "-//W3C//DTD SVG 1.1//EN" "http://www.w3.org/Graphics/SVG/1.1/DTD/svg11.dtd">
<svg version="1.1" id="Layer_1" xmlns="http://www.w3.org/2000/svg" xmlns:xlink="http://www.w3.org/1999/xlink" x="0px" y="0px"
	 width="32px" height="32px" viewBox="0 0 32 32" enable-background="new 0 0 32 32" xml:space="preserve">
<path d="M28.188,1H3.812C2.266,1,1,2.266,1,3.812v24.375C1,29.734,2.266,31,3.812,31h24.375C29.734,31,31,29.734,31,28.188V3.812
	C31,2.266,29.734,1,28.188,1z M12.25,25.375H8.5V12.25h3.75V25.375z M10.375,10.375C9.339,10.375,8.5,9.537,8.5,8.5
	s0.839-1.875,1.875-1.875S12.25,7.463,12.25,8.5S11.411,10.375,10.375,10.375z M25.375,25.375h-3.75v-7.5
	c0-1.036-0.839-1.875-1.875-1.875s-1.875,0.839-1.875,1.875v7.5h-3.75V12.25h3.75v2.326c0.773-1.06,1.956-2.326,3.281-2.326
	c2.333,0,4.219,2.098,4.219,4.688V25.375z"/>
</svg>
