<?xml version="1.0" encoding="utf-8"?>
<!-- Generator: Adobe Illustrator 16.0.0, SVG Export Plug-In . SVG Version: 6.00 Build 0)  -->
<!DOCTYPE svg PUBLIC "-//W3C//DTD SVG 1.1//EN" "http://www.w3.org/Graphics/SVG/1.1/DTD/svg11.dtd">
<svg version="1.1" id="Layer_1" xmlns="http://www.w3.org/2000/svg" xmlns:xlink="http://www.w3.org/1999/xlink" x="0px" y="0px"
	 width="32px" height="32px" viewBox="0 0 32 32" enable-background="new 0 0 32 32" xml:space="preserve">
<path d="M26.02,1H5.98C3.241,1,1,3.242,1,5.981V26.02C1,28.759,3.241,31,5.98,31H26.02c2.739,0,4.98-2.241,4.98-4.98V5.981
	C31,3.242,28.759,1,26.02,1z M10.604,14.125h10.792c0.204,0.588,0.316,1.219,0.316,1.875c0,3.149-2.563,5.713-5.713,5.713
	S10.287,19.149,10.287,16C10.287,15.344,10.399,14.713,10.604,14.125z M27.25,14.127v11.248c0,1.03-0.845,1.875-1.875,1.875H6.625
	c-1.03,0-1.875-0.845-1.875-1.875v-11.25h2.933C7.546,14.729,7.475,15.355,7.475,16c0,4.7,3.823,8.525,8.525,8.525
	s8.525-3.823,8.525-8.525c0-0.645-0.071-1.271-0.208-1.875L27.25,14.127z M27.25,7.562c0,0.516-0.422,0.938-0.938,0.938h-1.875
	c-0.516,0-0.938-0.422-0.938-0.938V5.688c0-0.516,0.422-0.938,0.938-0.938h1.875c0.516,0,0.938,0.422,0.938,0.938V7.562z"/>
</svg>
