<?xml version="1.0" encoding="utf-8"?>
<!-- Generator: Adobe Illustrator 16.0.0, SVG Export Plug-In . SVG Version: 6.00 Build 0)  -->
<!DOCTYPE svg PUBLIC "-//W3C//DTD SVG 1.1//EN" "http://www.w3.org/Graphics/SVG/1.1/DTD/svg11.dtd">
<svg version="1.1" id="Layer_1" xmlns="http://www.w3.org/2000/svg" xmlns:xlink="http://www.w3.org/1999/xlink" x="0px" y="0px"
	 width="32px" height="32px" viewBox="0 0 32 32" enable-background="new 0 0 32 32" xml:space="preserve">
<path d="M16.464,27.867c7.343,0,9.74-7.942,9.74-7.942S31,18.127,31,13.63c0-2.997-1.649-6.144-5.695-6.144
	c-5.694,0-7.643,3.896-6.443,6.594c-6.595-0.899-7.644,4.047-7.943,5.395c-0.6-1.348-1.199-2.997-3.297-4.795
	c-1.798-1.649-2.248-3.897-2.548-4.496c-0.3-0.75,0.45-1.199,1.199-0.45c0.449,0.299,2.098,0.299,4.196-1.648
	c0.3-0.15,0.3-0.6,0.149-0.899C10.169,6.587,9.42,5.688,8.67,5.088C7.771,4.339,7.172,3.74,5.823,3.889
	c-1.199,0.15-2.248,1.199-3.147,1.948c-1.349,1.199-1.799,2.997-1.648,5.695c0.149,1.948,0.3,5.694,2.248,10.49
	c1.198,3.298,4.845,5.745,5.545,5.845C11.258,28.467,16.464,27.867,16.464,27.867z"/>
</svg>
