<?xml version="1.0" encoding="utf-8"?>
<!-- Generator: Adobe Illustrator 16.0.0, SVG Export Plug-In . SVG Version: 6.00 Build 0)  -->
<!DOCTYPE svg PUBLIC "-//W3C//DTD SVG 1.1//EN" "http://www.w3.org/Graphics/SVG/1.1/DTD/svg11.dtd">
<svg version="1.1" id="Layer_1" xmlns="http://www.w3.org/2000/svg" xmlns:xlink="http://www.w3.org/1999/xlink" x="0px" y="0px"
	 width="32px" height="32px" viewBox="0 0 32 32" enable-background="new 0 0 32 32" xml:space="preserve">
<g>
	<path d="M9.59,1L7.562,5.021L5.536,1H2.95l3.653,6.366l0.021-0.012v4.896H8.5V7.354l0.022,0.012L12.175,1H9.59z"/>
	<path d="M15.062,4.75C15.57,4.75,16,5.18,16,5.688v3.75c0,0.508-0.43,0.938-0.938,0.938s-0.938-0.43-0.938-0.938v-3.75
		C14.125,5.18,14.555,4.75,15.062,4.75z M15.062,2.875c-1.547,0-2.812,1.266-2.812,2.812v3.75c0,1.547,1.266,2.812,2.812,2.812
		s2.812-1.266,2.812-2.812v-3.75C17.875,4.141,16.609,2.875,15.062,2.875L15.062,2.875z"/>
	<path d="M23.5,2.875v7.382c-0.818,0.683-1.875,1.094-1.875-1.337V2.875H19.75v6.426h0.003c0.029,1.549,0.354,4.34,3.747,2.071
		v0.878h1.875V2.875H23.5z"/>
	<path d="M26.312,21.625c-0.517,0-0.938,0.421-0.938,0.938V23.5h1.875v-0.938C27.25,22.046,26.828,21.625,26.312,21.625z"/>
	<path d="M17.875,22.562v4.922c0.635,0.634,1.875,0.703,1.875-0.234s0-3.457,0-4.395S18.812,21.624,17.875,22.562L17.875,22.562z"/>
	<path d="M30.846,18.037c-0.081-1.08-0.47-1.961-1.165-2.644s-1.585-1.055-2.668-1.116c-2.045-0.102-6.722-0.152-10.831-0.152
		c-4.111,0-9.121,0.051-11.165,0.152c-1.084,0.062-1.973,0.434-2.669,1.116c-0.695,0.683-1.083,1.563-1.164,2.644
		C1.061,20.237,1,21.035,1,22.136s0.061,2.75,0.184,4.952c0.081,1.079,0.471,1.961,1.164,2.643c0.696,0.684,1.585,1.055,2.669,1.116
		C7.061,30.948,12.07,31,16.182,31c4.109,0,8.786-0.052,10.831-0.153c1.083-0.062,1.973-0.433,2.668-1.116
		c0.695-0.682,1.084-1.563,1.165-2.643C30.948,25.254,31,23.603,31,22.136S30.948,19.871,30.846,18.037z M6.625,29.125H4.75V19.75
		H2.875v-1.875H8.5v1.875H6.625V29.125z M14.125,29.125H12.25v-0.878c-3.563,2.001-3.718,0.064-3.747-1.486H8.5v-5.136h1.875v5.165
		c0,1.133,1.057,1.023,1.875,0.342v-5.507h1.875V29.125z M21.625,27.223c0,1.959-2.007,2.531-3.75,1.008v0.895H16v-11.25h1.875
		v3.047c1.875-1.875,3.75-1.172,3.75,0.703S21.625,25.175,21.625,27.223z M29.125,23.5v0.938h-3.75v1.875
		c0,0.516,0.421,0.938,0.938,0.938c0.516,0,0.938-0.422,0.938-0.938v-0.938h1.875v0.938c0,1.551-1.262,2.812-2.812,2.812
		S23.5,27.863,23.5,26.312v-3.75c0-1.551,1.262-2.812,2.812-2.812s2.812,1.262,2.812,2.812V23.5z"/>
</g>
</svg>
