<?xml version="1.0" encoding="utf-8"?>
<!-- Generator: Adobe Illustrator 16.0.0, SVG Export Plug-In . SVG Version: 6.00 Build 0)  -->
<!DOCTYPE svg PUBLIC "-//W3C//DTD SVG 1.1//EN" "http://www.w3.org/Graphics/SVG/1.1/DTD/svg11.dtd">
<svg version="1.1" id="Layer_1" xmlns="http://www.w3.org/2000/svg" xmlns:xlink="http://www.w3.org/1999/xlink" x="0px" y="0px"
	 width="32px" height="32px" viewBox="0 0 32 32" enable-background="new 0 0 32 32" xml:space="preserve">
<path d="M31,6.696c-1.103,0.489-2.291,0.82-3.536,0.969c1.271-0.762,2.247-1.968,2.708-3.404c-1.189,0.705-2.508,1.218-3.909,1.493
	c-1.122-1.196-2.723-1.943-4.493-1.943c-3.398,0-6.154,2.755-6.154,6.154c0,0.483,0.055,0.953,0.159,1.402
	C10.66,11.111,6.125,8.66,3.089,4.937C2.561,5.846,2.256,6.902,2.256,8.031c0,2.135,1.086,4.019,2.737,5.123
	c-1.009-0.031-1.957-0.309-2.786-0.77c-0.002,0.025-0.002,0.052-0.002,0.078c0,2.982,2.122,5.469,4.937,6.034
	c-0.517,0.142-1.061,0.217-1.622,0.217c-0.396,0-0.782-0.039-1.158-0.112c0.784,2.444,3.057,4.225,5.75,4.274
	c-2.105,1.651-4.761,2.635-7.645,2.635c-0.496,0-0.985-0.029-1.467-0.086c2.723,1.746,5.958,2.765,9.434,2.765
	c11.321,0,17.512-9.379,17.512-17.512c0-0.268-0.005-0.533-0.018-0.796C29.131,9.014,30.174,7.93,31,6.696L31,6.696z"/>
</svg>
