<?xml version="1.0" encoding="utf-8"?>
<!-- Generator: Adobe Illustrator 16.0.0, SVG Export Plug-In . SVG Version: 6.00 Build 0)  -->
<!DOCTYPE svg PUBLIC "-//W3C//DTD SVG 1.1//EN" "http://www.w3.org/Graphics/SVG/1.1/DTD/svg11.dtd">
<svg version="1.1" id="Layer_1" xmlns="http://www.w3.org/2000/svg" xmlns:xlink="http://www.w3.org/1999/xlink" x="0px" y="0px"
	 width="32px" height="32px" viewBox="0 0 32 32" enable-background="new 0 0 32 32" xml:space="preserve">
<path d="M28.272,26.909H3.728C2.223,26.909,1,25.687,1,24.182V7.818c0-1.506,1.223-2.728,2.728-2.728h24.545
	C29.777,5.091,31,6.312,31,7.818v16.363C31,25.687,29.777,26.909,28.272,26.909z M26.909,24.182l-7.817-6.839L16,20.091
	l-3.092-2.748l-7.817,6.839H26.909z M3.728,22.818L11.397,16l-7.67-6.818V22.818z M5.091,7.818L16,17.363l10.909-9.545H5.091z
	 M28.272,9.182L20.603,16l7.67,6.818V9.182z"/>
</svg>
