<?xml version="1.0" encoding="utf-8"?>
<!-- Generator: Adobe Illustrator 16.0.0, SVG Export Plug-In . SVG Version: 6.00 Build 0)  -->
<!DOCTYPE svg PUBLIC "-//W3C//DTD SVG 1.1//EN" "http://www.w3.org/Graphics/SVG/1.1/DTD/svg11.dtd">
<svg version="1.1" id="Layer_1" xmlns="http://www.w3.org/2000/svg" xmlns:xlink="http://www.w3.org/1999/xlink" x="0px" y="0px"
	 width="32px" height="32px" viewBox="0 0 32 32" enable-background="new 0 0 32 32" xml:space="preserve">
<g>
	<path fill-rule="evenodd" clip-rule="evenodd" d="M10.546,14.636v3.274h5.414c-0.219,1.402-1.638,4.117-5.414,4.117
		c-3.261,0-5.918-2.699-5.918-6.027c0-3.327,2.657-6.027,5.918-6.027c1.854,0,3.095,0.791,3.804,1.473L16.94,8.95
		c-1.663-1.556-3.816-2.496-6.395-2.496C5.268,6.455,1,10.723,1,16s4.268,9.545,9.546,9.545c5.509,0,9.164-3.871,9.164-9.327
		c0-0.627-0.069-1.105-0.151-1.582H10.546z"/>
	<polygon fill-rule="evenodd" clip-rule="evenodd" points="28.272,14.636 28.272,11.909 25.546,11.909 25.546,14.636 22.818,14.636 
		22.818,17.363 25.546,17.363 25.546,20.092 28.272,20.092 28.272,17.363 31,17.363 31,14.636 	"/>
</g>
</svg>
