<?xml version="1.0" encoding="utf-8"?>
<!-- Generator: Adobe Illustrator 16.0.0, SVG Export Plug-In . SVG Version: 6.00 Build 0)  -->
<!DOCTYPE svg PUBLIC "-//W3C//DTD SVG 1.1//EN" "http://www.w3.org/Graphics/SVG/1.1/DTD/svg11.dtd">
<svg version="1.1" id="Layer_1" xmlns="http://www.w3.org/2000/svg" xmlns:xlink="http://www.w3.org/1999/xlink" x="0px" y="0px"
	 width="32px" height="32px" viewBox="0 0 32 32" enable-background="new 0 0 32 32" xml:space="preserve">
<path d="M6.4,27.4c0,1.987,1.611,3.6,3.6,3.6h12c1.987,0,3.6-1.612,3.6-3.6L28,8.2H4L6.4,27.4z M19.6,11.8H22V27.4h-2.4V11.8z
	 M14.8,11.8h2.4V27.4h-2.4V11.8z M10,11.8h2.4V27.4H10V11.8z M27.4,3.4H19.6c0,0-0.537-2.4-1.199-2.4H13.6
	C12.937,1,12.4,3.4,12.4,3.4H4.6c-0.994,0-1.8,0.805-1.8,1.8c0,0.995,0,1.8,0,1.8h26.4c0,0,0-0.805,0-1.8
	C29.2,4.205,28.394,3.4,27.4,3.4z"/>
</svg>
