<?xml version="1.0" encoding="utf-8"?>
<!-- Generator: Adobe Illustrator 16.0.0, SVG Export Plug-In . SVG Version: 6.00 Build 0)  -->
<!DOCTYPE svg PUBLIC "-//W3C//DTD SVG 1.1//EN" "http://www.w3.org/Graphics/SVG/1.1/DTD/svg11.dtd">
<svg version="1.1" id="Layer_1" xmlns="http://www.w3.org/2000/svg" xmlns:xlink="http://www.w3.org/1999/xlink" x="0px" y="0px"
	 width="32px" height="32px" viewBox="0 0 32 32" enable-background="new 0 0 32 32" xml:space="preserve">
<path d="M31,15.277c0,0.681-0.236,1.257-0.713,1.733L17.752,29.565c-0.5,0.477-1.086,0.713-1.752,0.713
	c-0.679,0-1.256-0.236-1.732-0.713L1.732,17.011C1.246,16.549,1,15.971,1,15.277c0-0.68,0.246-1.265,0.732-1.752l1.424-1.444
	c0.501-0.476,1.086-0.712,1.752-0.712c0.68,0,1.257,0.236,1.734,0.712l5.66,5.661V4.187c0-0.667,0.246-1.244,0.732-1.733
	c0.488-0.487,1.066-0.731,1.732-0.731h2.465c0.666,0,1.244,0.244,1.732,0.731c0.486,0.489,0.732,1.066,0.732,1.733v13.556
	l5.66-5.661c0.478-0.476,1.055-0.712,1.734-0.712c0.666,0,1.251,0.236,1.752,0.712l1.443,1.444C30.764,14.026,31,14.611,31,15.277z"
	/>
</svg>
