<?xml version="1.0" encoding="utf-8"?>
<!-- Generator: Adobe Illustrator 16.0.0, SVG Export Plug-In . SVG Version: 6.00 Build 0)  -->
<!DOCTYPE svg PUBLIC "-//W3C//DTD SVG 1.1//EN" "http://www.w3.org/Graphics/SVG/1.1/DTD/svg11.dtd">
<svg version="1.1" id="Layer_1" xmlns="http://www.w3.org/2000/svg" xmlns:xlink="http://www.w3.org/1999/xlink" x="0px" y="0px"
	 width="32px" height="32px" viewBox="0 0 32 32" enable-background="new 0 0 32 32" xml:space="preserve">
<path d="M8.499,17.874c0-1.036,0.839-1.875,1.875-1.875s1.875,0.839,1.875,1.875s-0.839,1.875-1.875,1.875S8.499,18.91,8.499,17.874
	z M19.749,17.874c0-1.036,0.839-1.875,1.875-1.875s1.875,0.839,1.875,1.875s-0.839,1.875-1.875,1.875S19.749,18.91,19.749,17.874z
	 M19.841,21.881c0.481-0.381,1.183-0.297,1.563,0.187c0.38,0.481,0.297,1.183-0.187,1.563c-1.344,1.059-3.393,1.743-5.219,1.743
	s-3.874-0.685-5.219-1.743c-0.483-0.381-0.566-1.082-0.187-1.563c0.381-0.483,1.082-0.567,1.563-0.187
	c0.774,0.61,2.308,1.267,3.842,1.267S19.066,22.491,19.841,21.881z M30.999,14.124c0-2.071-1.679-3.75-3.75-3.75
	c-1.41,0-2.637,0.778-3.276,1.929c-1.928-1.055-4.276-1.735-6.835-1.893l2.238-5.025l4.283,1.237
	C24.045,7.715,25.087,8.5,26.312,8.5c1.554,0,2.812-1.259,2.812-2.812s-1.259-2.812-2.812-2.812c-1.07,0-2.002,0.599-2.477,1.48
	l-4.773-1.378c-0.534-0.154-1.099,0.109-1.326,0.617l-3.039,6.827c-2.495,0.175-4.783,0.851-6.67,1.882
	c-0.64-1.15-1.868-1.928-3.277-1.928c-2.071,0-3.75,1.679-3.75,3.75c0,1.533,0.92,2.849,2.238,3.431
	c-0.236,0.704-0.363,1.439-0.363,2.194c0,5.178,5.877,9.375,13.125,9.375s13.125-4.197,13.125-9.375
	c0-0.755-0.125-1.489-0.363-2.193C30.08,16.975,31,15.658,30.999,14.124L30.999,14.124z M26.312,4.632
	c0.582,0,1.055,0.473,1.055,1.055c0,0.583-0.473,1.055-1.055,1.055s-1.055-0.472-1.055-1.055
	C25.257,5.104,25.729,4.632,26.312,4.632z M2.874,14.124c0-1.034,0.841-1.875,1.875-1.875c0.747,0,1.394,0.439,1.695,1.073
	c-0.979,0.743-1.792,1.6-2.393,2.542C3.363,15.587,2.874,14.912,2.874,14.124z M15.999,26.897c-6.019,0-10.898-3.2-10.898-7.148
	c0-3.948,4.88-7.148,10.898-7.148s10.898,3.201,10.898,7.148C26.897,23.697,22.018,26.897,15.999,26.897z M27.946,15.864
	c-0.601-0.939-1.413-1.798-2.393-2.542c0.302-0.634,0.948-1.073,1.695-1.073c1.034,0,1.875,0.841,1.875,1.875
	C29.124,14.912,28.637,15.587,27.946,15.864z"/>
</svg>
