<?xml version="1.0" encoding="utf-8"?>
<!-- Generator: Adobe Illustrator 16.0.0, SVG Export Plug-In . SVG Version: 6.00 Build 0)  -->
<!DOCTYPE svg PUBLIC "-//W3C//DTD SVG 1.1//EN" "http://www.w3.org/Graphics/SVG/1.1/DTD/svg11.dtd">
<svg version="1.1" id="Layer_1" xmlns="http://www.w3.org/2000/svg" xmlns:xlink="http://www.w3.org/1999/xlink" x="0px" y="0px"
	 width="110px" height="142.021px" viewBox="0 0 110 142.021" enable-background="new 0 0 110 142.021" xml:space="preserve">
<path fill="#FFC200" d="M58.244,49.719c-2.688,3.615-15.047,19.681-17.724,23.283c-0.102,0.69-0.173,1.394-0.173,2.109
	c0,6.062,3.753,11.231,9.063,13.339l-4.333,10.948c7.26-6.917,14.516-13.829,21.776-20.746c-0.043-0.071-0.088-0.143-0.123-0.213
	c-6.814,1.362-13.64,2.734-20.792,4.169C51.911,76.382,67.5,61.16,73.43,54.974c-2.474-2.021-5.629-3.237-9.072-3.237
	C62.167,51.736,60.102,48.842,58.244,49.719z"/>
<g>
	
		<radialGradient id="SVGID_1_" cx="110.9219" cy="-76.113" r="45.0537" gradientTransform="matrix(1 0 0 -1 -56 -2.979)" gradientUnits="userSpaceOnUse">
		<stop  offset="0" style="stop-color:#F06918"/>
		<stop  offset="0.3282" style="stop-color:#F06B17"/>
		<stop  offset="0.5168" style="stop-color:#F27415"/>
		<stop  offset="0.6701" style="stop-color:#F48211"/>
		<stop  offset="0.8043" style="stop-color:#F7950C"/>
		<stop  offset="0.925" style="stop-color:#FCAF05"/>
		<stop  offset="1" style="stop-color:#FFC300"/>
	</radialGradient>
	<path fill="url(#SVGID_1_)" d="M100.77,74.735c0-25.324-20.525-45.847-45.849-45.847c-25.324,0-45.848,20.522-45.848,45.847
		c0,19.356,12.003,35.917,28.969,42.645l11.595-29.306c-5.312-2.106-9.063-7.275-9.063-13.339c0-7.921,6.426-14.338,14.348-14.338
		c7.921,0,14.348,6.426,14.348,14.338c0,6.054-3.763,11.231-9.063,13.339l11.595,29.306C88.768,110.652,100.77,94.102,100.77,74.735
		z"/>
</g>
<path fill="#FFC200" d="M110,0.326c-0.044-0.107-0.08-0.213-0.133-0.302c-0.416,0-0.842,0-1.258,0
	c-8.01,0-16.012,0.019-24.021-0.024c-1.009,0-1.646,0.283-2.274,1.105c-7.285,9.361-14.59,18.711-21.894,28.063
	c4.461,0.48,8.731,1.596,12.716,3.265C85.421,21.728,97.715,11.023,110,0.326z"/>
<path fill="#FFC200" d="M93.156,33.588c-4.812,0.655-9.492,1.296-14.117,1.933c2.559,1.551,4.943,3.339,7.143,5.344
	C88.51,38.437,90.82,36.027,93.156,33.588z"/>
<path fill="#FFC200" d="M0,141.87c0.062,0.044,0.115,0.098,0.168,0.15c10.031-9.558,20.061-19.109,30.089-28.664
	c-1.887-1.21-3.677-2.551-5.363-4.015C16.558,120.231,8.267,131.067,0,141.87z"/>
<path fill="#FFC200" d="M79.168,35.556c-3.678,0.504-7.324,1.004-10.967,1.502c-0.026-0.09-0.053-0.168-0.09-0.258
	c1.674-1.456,3.347-2.911,5.02-4.369c-3.982-1.667-8.253-2.782-12.712-3.265c-4.612,5.911-9.22,11.825-13.832,17.733
	c-1.646,2.115-3.292,4.239-5.107,6.585c5.426-0.92,10.55-1.788,16.04-2.717c-2.75,3.694-5.458,7.342-8.187,11.011
	c1.856-0.876,3.06,0.481,5.25,0.481c3.442,0,5.746,1.405,8.219,3.428c7.249-7.562,16.232-17.2,23.508-24.787
	C84.111,38.895,81.727,37.106,79.168,35.556z"/>
</svg>
