<?xml version="1.0" encoding="utf-8"?>
<!-- Generator: Adobe Illustrator 16.0.0, SVG Export Plug-In . SVG Version: 6.00 Build 0)  -->
<!DOCTYPE svg PUBLIC "-//W3C//DTD SVG 1.1//EN" "http://www.w3.org/Graphics/SVG/1.1/DTD/svg11.dtd">
<svg version="1.1" id="Layer_1" xmlns="http://www.w3.org/2000/svg" xmlns:xlink="http://www.w3.org/1999/xlink" x="0px" y="0px"
	 width="213.074px" height="167.054px" viewBox="0 0 213.074 167.054" enable-background="new 0 0 213.074 167.054"
	 xml:space="preserve">
<radialGradient id="SVGID_1_" cx="126.8398" cy="65.9346" r="40.6909" gradientUnits="userSpaceOnUse">
	<stop  offset="0" style="stop-color:#F06918"/>
	<stop  offset="1" style="stop-color:#FFC300"/>
</radialGradient>
<path fill="url(#SVGID_1_)" d="M167.531,65.938c0-22.481-18.213-40.694-40.694-40.694c-22.475,0-40.688,18.213-40.688,40.694
	c0,22.475,18.213,40.688,40.688,40.688C149.318,106.625,167.531,88.412,167.531,65.938z"/>
<path opacity="0.5" fill="#FFFFFF" d="M152.608,65.937c0-14.236-11.534-25.771-25.771-25.771c-14.231,0-25.766,11.534-25.766,25.771
	c0,14.231,11.534,25.766,25.766,25.766C141.074,91.702,152.608,80.168,152.608,65.937z"/>
<path opacity="0.5" fill="#FFFFFF" d="M141.108,65.936c0-7.883-6.387-14.27-14.27-14.27c-7.88,0-14.267,6.387-14.267,14.27
	c0,7.88,6.387,14.267,14.267,14.267C134.722,80.202,141.108,73.815,141.108,65.936z"/>
<radialGradient id="SVGID_2_" cx="85.9238" cy="25.7686" r="25.7681" gradientUnits="userSpaceOnUse">
	<stop  offset="0" style="stop-color:#F06918"/>
	<stop  offset="1" style="stop-color:#FFC300"/>
</radialGradient>
<path fill="url(#SVGID_2_)" d="M111.692,25.771C111.692,11.534,100.158,0,85.922,0C71.69,0,60.156,11.534,60.156,25.771
	c0,14.231,11.534,25.766,25.766,25.766C100.158,51.536,111.692,40.002,111.692,25.771z"/>
<path opacity="0.5" fill="#FFFFFF" d="M100.192,25.77c0-7.883-6.387-14.27-14.27-14.27c-7.88,0-14.267,6.387-14.267,14.27
	c0,7.88,6.387,14.267,14.267,14.267C93.806,40.036,100.192,33.649,100.192,25.77z"/>
<radialGradient id="SVGID_3_" cx="98.9707" cy="119.8857" r="29.7778" gradientUnits="userSpaceOnUse">
	<stop  offset="0" style="stop-color:#F06918"/>
	<stop  offset="1" style="stop-color:#FFC300"/>
</radialGradient>
<path fill="url(#SVGID_3_)" d="M128.749,119.893c0-16.454-13.329-29.783-29.782-29.783c-16.445,0-29.775,13.329-29.775,29.783
	c0,16.441,13.33,29.771,29.775,29.771C115.42,149.663,128.749,136.334,128.749,119.893z"/>
<path opacity="0.5" fill="#FFFFFF" d="M113.791,119.89c0-8.19-6.635-14.825-14.822-14.825c-8.186,0-14.82,6.635-14.82,14.825
	c0,8.183,6.635,14.817,14.82,14.817C107.156,134.707,113.791,128.072,113.791,119.89z"/>
<g>
	<polygon opacity="0.6" fill="#737373" points="84.508,29.013 87.342,29.013 100.105,120.581 97.292,120.938 	"/>
</g>
<circle fill="#FFFFFF" cx="98.971" cy="119.887" r="4.666"/>
<radialGradient id="SVGID_4_" cx="38.5645" cy="128.4912" r="38.564" gradientUnits="userSpaceOnUse">
	<stop  offset="0" style="stop-color:#F06918"/>
	<stop  offset="1" style="stop-color:#FFC300"/>
</radialGradient>
<path fill="url(#SVGID_4_)" d="M77.13,128.498c0-21.309-17.263-38.569-38.569-38.569C17.263,89.929,0,107.189,0,128.498
	c0,21.295,17.263,38.556,38.561,38.556C59.867,167.054,77.13,149.793,77.13,128.498z"/>
<path opacity="0.5" fill="#FFFFFF" d="M65.628,128.495c0-14.952-12.113-27.065-27.066-27.065c-14.946,0-27.06,12.113-27.06,27.065
	c0,14.944,12.113,27.058,27.06,27.058C53.515,155.553,65.628,143.439,65.628,128.495z"/>
<path opacity="0.5" fill="#FFFFFF" d="M53.083,128.493c0-8.021-6.498-14.52-14.52-14.52c-8.019,0-14.517,6.499-14.517,14.52
	c0,8.017,6.498,14.516,14.517,14.516C46.585,143.009,53.083,136.51,53.083,128.493z"/>
<g>
	
		<rect x="104.81" y="21.155" transform="matrix(0.7071 -0.7071 0.7071 0.7071 -1.2097 88.5024)" opacity="0.6" fill="#737373" width="2.834" height="49.112"/>
</g>
<radialGradient id="SVGID_5_" cx="27.9238" cy="83.7686" r="17.1968" gradientUnits="userSpaceOnUse">
	<stop  offset="0" style="stop-color:#F06918"/>
	<stop  offset="0.29" style="stop-color:#F68E0E"/>
	<stop  offset="0.5749" style="stop-color:#FBAB06"/>
	<stop  offset="0.821" style="stop-color:#FEBD02"/>
	<stop  offset="1" style="stop-color:#FFC300"/>
</radialGradient>
<circle fill="url(#SVGID_5_)" cx="27.924" cy="83.769" r="17.197"/>
<g>
	
		<rect x="55.846" y="17.236" transform="matrix(0.7071 0.7071 -0.7071 0.7071 55.3171 -24.5249)" opacity="0.6" fill="#737373" width="2.834" height="74.551"/>
</g>
<circle fill="#FFFFFF" cx="27.924" cy="83.769" r="4.667"/>
<radialGradient id="SVGID_6_" cx="198.5293" cy="77.2061" r="14.5444" gradientUnits="userSpaceOnUse">
	<stop  offset="0" style="stop-color:#F06918"/>
	<stop  offset="0.29" style="stop-color:#F68E0E"/>
	<stop  offset="0.5749" style="stop-color:#FBAB06"/>
	<stop  offset="0.821" style="stop-color:#FEBD02"/>
	<stop  offset="1" style="stop-color:#FFC300"/>
</radialGradient>
<circle fill="url(#SVGID_6_)" cx="198.53" cy="77.206" r="14.544"/>
<g>
	<circle fill="#FFFFFF" cx="85.924" cy="25.769" r="4.667"/>
</g>
<g>
	<polygon opacity="0.6" fill="#737373" points="39.182,130.11 37.178,128.106 128.26,61.912 129.926,64.207 	"/>
</g>
<g>
	<polygon opacity="0.6" fill="#737373" points="128.749,67.609 128.749,64.775 195.034,74.976 194.59,77.776 	"/>
</g>
<circle fill="#FFFFFF" cx="38.565" cy="128.491" r="4.667"/>
<g>
	<circle fill="#FFFFFF" cx="126.84" cy="65.935" r="4.667"/>
</g>
<circle fill="#FFFFFF" cx="198.53" cy="77.206" r="4.667"/>
</svg>
