<?xml version="1.0" encoding="utf-8"?>
<!-- Generator: Adobe Illustrator 16.0.0, SVG Export Plug-In . SVG Version: 6.00 Build 0)  -->
<!DOCTYPE svg PUBLIC "-//W3C//DTD SVG 1.1//EN" "http://www.w3.org/Graphics/SVG/1.1/DTD/svg11.dtd">
<svg version="1.1" id="Layer_1" xmlns="http://www.w3.org/2000/svg" xmlns:xlink="http://www.w3.org/1999/xlink" x="0px" y="0px"
	 width="127.669px" height="139.209px" viewBox="0 0 127.669 139.209" enable-background="new 0 0 127.669 139.209"
	 xml:space="preserve">
<path fill="#F06918" d="M67.986,11.688V6.098h4.924c1.684,0,3.049-1.365,3.049-3.049S74.593,0,72.91,0H54.76
	c-1.684,0-3.049,1.365-3.049,3.049s1.365,3.049,3.049,3.049h4.924v5.591c-8.114,0.524-15.817,2.566-22.832,5.853
	c-0.012-0.054-0.017-0.107-0.042-0.158l-1.849-3.771l2.979-1.566c0.829-0.406,1.172-1.409,0.766-2.238s-1.409-1.172-2.238-0.766
	L25.121,15.01c-0.829,0.405-1.172,1.408-0.766,2.237c0.406,0.83,1.408,1.172,2.237,0.766l3.309-1.74l1.776,3.626
	c0.05,0.103,0.127,0.18,0.213,0.243C12.845,31.2,0,51.81,0,75.374c0,35.198,28.636,63.835,63.834,63.835
	c35.198,0,63.835-28.637,63.835-63.835C127.669,41.571,101.255,13.837,67.986,11.688z M63.834,135.289
	c-33.037,0-59.916-26.878-59.916-59.915s26.878-59.915,59.916-59.915s59.915,26.878,59.915,59.915S96.872,135.289,63.834,135.289z"
	/>
<radialGradient id="SVGID_1_" cx="103.5337" cy="67.4141" r="41.142" gradientUnits="userSpaceOnUse">
	<stop  offset="0" style="stop-color:#F06918"/>
	<stop  offset="0.23" style="stop-color:#F16D17"/>
	<stop  offset="0.4351" style="stop-color:#F27714"/>
	<stop  offset="0.6309" style="stop-color:#F58A0F"/>
	<stop  offset="0.8195" style="stop-color:#FAA309"/>
	<stop  offset="1" style="stop-color:#FFC300"/>
</radialGradient>
<path fill="url(#SVGID_1_)" d="M88.308,67.106c0.541,2.493,0.756,4.979,0.756,7.579c0,0.868,0.755,1.624,1.624,1.624h25.116
	c0.868,0,1.624-0.756,1.624-1.624c0-29.661-24.034-53.7-53.594-53.7S10.242,45.019,10.242,74.578c0,0.869,0.756,1.624,1.624,1.624
	s1.624-0.755,1.624-1.624l0,0c0-20.785,16.996-37.787,37.787-37.787c14.943,0,27.822,8.662,33.997,21.327L88.308,67.106z"/>
<path opacity="0.6" d="M73.975,75.416l45.182-15.604l-46.927,9.1c-1.914-2.253-5.012-3.338-8.056-2.521
	c-4.207,1.128-6.706,5.454-5.577,9.663c1.13,4.209,5.456,6.705,9.665,5.577C71.305,80.815,73.446,78.324,73.975,75.416z"/>
</svg>
